# This file uses centimeters as units for non-parametric coordinates.

mtllib Placeholder coin.mtl
g default
v 0.252201 0.951057 -0.309017
v 0.252201 0.809018 -0.587786
v 0.252201 0.587786 -0.809017
v 0.252201 0.309017 -0.951057
v 0.252201 -0.000000 -1.000000
v 0.252201 -0.309017 -0.951057
v 0.252201 -0.587785 -0.809017
v 0.252201 -0.809017 -0.587785
v 0.252201 -0.951057 -0.309017
v 0.252201 -1.000000 0.000000
v 0.252201 -0.951057 0.309017
v 0.252201 -0.809017 0.587785
v 0.252201 -0.587785 0.809017
v 0.252201 -0.309017 0.951057
v 0.252201 -0.000000 1.000000
v 0.252201 0.309017 0.951057
v 0.252201 0.587785 0.809017
v 0.252201 0.809017 0.587785
v 0.252201 0.951057 0.309017
v 0.252201 1.000000 0.000000
v -0.252201 0.951057 -0.309017
v -0.252201 0.809018 -0.587786
v -0.252201 0.587786 -0.809017
v -0.252201 0.309017 -0.951057
v -0.252201 0.000000 -1.000000
v -0.252201 -0.309017 -0.951057
v -0.252201 -0.587785 -0.809017
v -0.252201 -0.809017 -0.587785
v -0.252201 -0.951057 -0.309017
v -0.252201 -1.000000 0.000000
v -0.252201 -0.951057 0.309017
v -0.252201 -0.809017 0.587785
v -0.252201 -0.587785 0.809017
v -0.252201 -0.309017 0.951057
v -0.252201 -0.000000 1.000000
v -0.252201 0.309017 0.951057
v -0.252201 0.587785 0.809017
v -0.252201 0.809017 0.587785
v -0.252201 0.951057 0.309017
v -0.252201 1.000000 0.000000
v 0.253012 0.850512 -0.276348
v 0.253012 0.723488 -0.525645
v 0.253012 0.525645 -0.723488
v 0.253012 0.276348 -0.850512
v 0.253012 -0.000000 -0.894281
v 0.253012 -0.276348 -0.850511
v 0.253012 -0.525645 -0.723488
v 0.253012 -0.723488 -0.525645
v 0.253012 -0.850511 -0.276348
v 0.253012 -0.894280 -0.000000
v 0.253012 -0.850511 0.276348
v 0.253012 -0.723488 0.525645
v 0.253012 -0.525645 0.723488
v 0.253012 -0.276348 0.850511
v 0.253012 -0.000000 0.894280
v 0.253012 0.276348 0.850511
v 0.253012 0.525645 0.723488
v 0.253012 0.723488 0.525645
v 0.253012 0.850511 0.276348
v 0.253012 0.894280 -0.000000
v -0.253012 0.850512 -0.276348
v -0.253012 0.723488 -0.525645
v -0.253012 0.525645 -0.723488
v -0.253012 0.276348 -0.850512
v -0.253012 -0.000000 -0.894281
v -0.253012 -0.276348 -0.850511
v -0.253012 -0.525645 -0.723488
v -0.253012 -0.723488 -0.525645
v -0.253012 -0.850511 -0.276348
v -0.253012 -0.894280 -0.000000
v -0.253012 -0.850511 0.276348
v -0.253012 -0.723488 0.525645
v -0.253012 -0.525645 0.723488
v -0.253012 -0.276348 0.850511
v -0.253012 -0.000000 0.894280
v -0.253012 0.276348 0.850511
v -0.253012 0.525645 0.723488
v -0.253012 0.723488 0.525645
v -0.253012 0.850511 0.276348
v -0.253012 0.894280 -0.000000
v 0.199238 0.850512 -0.276348
v 0.199238 0.723488 -0.525645
v 0.199238 -0.000000 -0.000000
v 0.199238 0.525645 -0.723488
v 0.199238 0.276348 -0.850512
v 0.199238 -0.000000 -0.894281
v 0.199238 -0.276348 -0.850511
v 0.199238 -0.525645 -0.723488
v 0.199238 -0.723488 -0.525645
v 0.199238 -0.850511 -0.276348
v 0.199238 -0.894280 -0.000000
v 0.199238 -0.850511 0.276348
v 0.199238 -0.723488 0.525645
v 0.199238 -0.525645 0.723488
v 0.199238 -0.276348 0.850511
v 0.199238 -0.000000 0.894280
v 0.199238 0.276348 0.850511
v 0.199238 0.525645 0.723488
v 0.199238 0.723488 0.525645
v 0.199238 0.850511 0.276348
v 0.199238 0.894280 -0.000000
v -0.199238 0.850512 -0.276348
v -0.199238 0.723488 -0.525645
v -0.199238 -0.000000 -0.000000
v -0.199238 0.525645 -0.723488
v -0.199238 0.276348 -0.850512
v -0.199238 -0.000000 -0.894281
v -0.199238 -0.276348 -0.850511
v -0.199238 -0.525645 -0.723488
v -0.199238 -0.723488 -0.525645
v -0.199238 -0.850511 -0.276348
v -0.199238 -0.894280 -0.000000
v -0.199238 -0.850511 0.276348
v -0.199238 -0.723488 0.525645
v -0.199238 -0.525645 0.723488
v -0.199238 -0.276348 0.850511
v -0.199238 -0.000000 0.894280
v -0.199238 0.276348 0.850511
v -0.199238 0.525645 0.723488
v -0.199238 0.723488 0.525645
v -0.199238 0.850511 0.276348
v -0.199238 0.894280 -0.000000
vt 0.648603 0.107966
vt 0.626409 0.064408
vt 0.591842 0.029841
vt 0.548284 0.007647
vt 0.500000 -0.000000
vt 0.451716 0.007647
vt 0.408159 0.029841
vt 0.373591 0.064409
vt 0.351397 0.107966
vt 0.343750 0.156250
vt 0.351397 0.204534
vt 0.373591 0.248091
vt 0.408159 0.282659
vt 0.451716 0.304853
vt 0.500000 0.312500
vt 0.548284 0.304853
vt 0.591841 0.282659
vt 0.626409 0.248091
vt 0.648603 0.204534
vt 0.656250 0.156250
vt 0.375000 0.312500
vt 0.387500 0.312500
vt 0.400000 0.312500
vt 0.412500 0.312500
vt 0.425000 0.312500
vt 0.437500 0.312500
vt 0.450000 0.312500
vt 0.462500 0.312500
vt 0.475000 0.312500
vt 0.487500 0.312500
vt 0.500000 0.312500
vt 0.512500 0.312500
vt 0.525000 0.312500
vt 0.537500 0.312500
vt 0.550000 0.312500
vt 0.562500 0.312500
vt 0.575000 0.312500
vt 0.587500 0.312500
vt 0.600000 0.312500
vt 0.612500 0.312500
vt 0.625000 0.312500
vt 0.375000 0.688440
vt 0.387500 0.688440
vt 0.400000 0.688440
vt 0.412500 0.688440
vt 0.425000 0.688440
vt 0.437500 0.688440
vt 0.450000 0.688440
vt 0.462500 0.688440
vt 0.475000 0.688440
vt 0.487500 0.688440
vt 0.500000 0.688440
vt 0.512500 0.688440
vt 0.525000 0.688440
vt 0.537500 0.688440
vt 0.550000 0.688440
vt 0.562500 0.688440
vt 0.575000 0.688440
vt 0.587500 0.688440
vt 0.600000 0.688440
vt 0.612500 0.688440
vt 0.625000 0.688440
vt 0.648603 0.795466
vt 0.626409 0.751908
vt 0.591842 0.717341
vt 0.548284 0.695147
vt 0.500000 0.687500
vt 0.451716 0.695147
vt 0.408159 0.717341
vt 0.373591 0.751909
vt 0.351397 0.795466
vt 0.343750 0.843750
vt 0.351397 0.892034
vt 0.373591 0.935591
vt 0.408159 0.970159
vt 0.451716 0.992353
vt 0.500000 1.000000
vt 0.548284 0.992353
vt 0.591841 0.970159
vt 0.626409 0.935591
vt 0.648603 0.892034
vt 0.656250 0.843750
vt 0.500000 0.150000
vt 0.500000 0.837500
vt 0.626409 0.064408
vt 0.648603 0.107966
vt 0.591842 0.029841
vt 0.548284 0.007647
vt 0.500000 -0.000000
vt 0.451716 0.007647
vt 0.408159 0.029841
vt 0.373591 0.064409
vt 0.351397 0.107966
vt 0.343750 0.156250
vt 0.351397 0.204534
vt 0.373591 0.248091
vt 0.408159 0.282659
vt 0.451716 0.304853
vt 0.500000 0.312500
vt 0.548284 0.304853
vt 0.591841 0.282659
vt 0.626409 0.248091
vt 0.648603 0.204534
vt 0.656250 0.156250
vt 0.648603 0.892034
vt 0.626409 0.935591
vt 0.591841 0.970159
vt 0.548284 0.992353
vt 0.500000 1.000000
vt 0.451716 0.992353
vt 0.408159 0.970159
vt 0.373591 0.935591
vt 0.351397 0.892034
vt 0.343750 0.843750
vt 0.351397 0.795466
vt 0.373591 0.751909
vt 0.408159 0.717341
vt 0.451716 0.695147
vt 0.500000 0.687500
vt 0.548284 0.695147
vt 0.591842 0.717341
vt 0.626409 0.751908
vt 0.648603 0.795466
vt 0.656250 0.843750
vt 0.626409 0.064408
vt 0.648603 0.107966
vt 0.591842 0.029841
vt 0.548284 0.007647
vt 0.500000 -0.000000
vt 0.451716 0.007647
vt 0.408159 0.029841
vt 0.373591 0.064409
vt 0.351397 0.107966
vt 0.343750 0.156250
vt 0.351397 0.204534
vt 0.373591 0.248091
vt 0.408159 0.282659
vt 0.451716 0.304853
vt 0.500000 0.312500
vt 0.548284 0.304853
vt 0.591841 0.282659
vt 0.626409 0.248091
vt 0.648603 0.204534
vt 0.656250 0.156250
vt 0.648603 0.892034
vt 0.626409 0.935591
vt 0.591841 0.970159
vt 0.548284 0.992353
vt 0.500000 1.000000
vt 0.451716 0.992353
vt 0.408159 0.970159
vt 0.373591 0.935591
vt 0.351397 0.892034
vt 0.343750 0.843750
vt 0.351397 0.795466
vt 0.373591 0.751909
vt 0.408159 0.717341
vt 0.451716 0.695147
vt 0.500000 0.687500
vt 0.548284 0.695147
vt 0.591842 0.717341
vt 0.626409 0.751908
vt 0.648603 0.795466
vt 0.656250 0.843750
vn 0.175654 0.936270 -0.304211
vn 0.175654 0.796438 -0.578646
vn -0.175654 0.796438 -0.578646
vn -0.175654 0.936270 -0.304211
vn 0.175654 0.578646 -0.796439
vn -0.175654 0.578646 -0.796439
vn 0.175654 0.304212 -0.936270
vn -0.175654 0.304212 -0.936270
vn 0.175654 -0.000000 -0.984452
vn -0.175654 -0.000000 -0.984452
vn 0.175654 -0.304212 -0.936269
vn -0.175654 -0.304212 -0.936269
vn 0.175654 -0.578646 -0.796438
vn -0.175654 -0.578646 -0.796438
vn 0.175654 -0.796439 -0.578646
vn -0.175654 -0.796439 -0.578646
vn 0.175654 -0.936269 -0.304212
vn -0.175654 -0.936269 -0.304212
vn 0.175654 -0.984452 0.000000
vn -0.175654 -0.984452 0.000000
vn 0.175654 -0.936270 0.304212
vn -0.175654 -0.936270 0.304212
vn 0.175654 -0.796438 0.578646
vn -0.175654 -0.796438 0.578647
vn 0.175654 -0.578646 0.796438
vn -0.175654 -0.578646 0.796438
vn 0.175654 -0.304212 0.936269
vn -0.175654 -0.304212 0.936269
vn 0.175654 0.000000 0.984452
vn -0.175654 0.000000 0.984452
vn 0.175654 0.304212 0.936269
vn -0.175654 0.304212 0.936269
vn 0.175654 0.578646 0.796438
vn -0.175654 0.578646 0.796438
vn 0.175654 0.796438 0.578646
vn -0.175654 0.796438 0.578646
vn 0.175654 0.936270 0.304212
vn -0.175654 0.936270 0.304212
vn 0.175654 0.984452 0.000001
vn -0.175654 0.984452 0.000001
vn 1.000000 -0.000000 -0.000000
vn 1.000000 -0.000000 -0.000000
vn 1.000000 -0.000000 -0.000000
vn 1.000000 -0.000000 -0.000000
vn 1.000000 -0.000000 -0.000000
vn 1.000000 -0.000000 -0.000000
vn 1.000000 -0.000000 0.000000
vn 1.000000 -0.000000 0.000000
vn 1.000000 -0.000000 0.000000
vn 1.000000 -0.000000 -0.000000
vn 1.000000 -0.000000 0.000000
vn 1.000000 -0.000000 0.000000
vn 1.000000 -0.000000 -0.000000
vn 1.000000 -0.000000 0.000000
vn 1.000000 -0.000000 0.000000
vn 1.000000 -0.000000 0.000000
vn 1.000000 -0.000000 -0.000000
vn 1.000000 -0.000000 -0.000000
vn 1.000000 -0.000000 0.000000
vn 1.000000 -0.000000 0.000000
vn 1.000000 -0.000000 0.000000
vn -1.000000 0.000000 -0.000000
vn -1.000000 0.000000 -0.000000
vn -1.000000 0.000000 -0.000000
vn -1.000000 0.000000 0.000000
vn -1.000000 0.000000 0.000000
vn -1.000000 0.000000 0.000000
vn -1.000000 0.000000 0.000000
vn -1.000000 0.000000 0.000000
vn -1.000000 0.000000 0.000000
vn -1.000000 0.000000 -0.000000
vn -1.000000 0.000000 0.000000
vn -1.000000 0.000000 0.000000
vn -1.000000 0.000000 -0.000000
vn -1.000000 0.000000 0.000000
vn -1.000000 0.000000 0.000000
vn -1.000000 0.000000 0.000000
vn -1.000000 0.000000 -0.000000
vn -1.000000 0.000000 -0.000000
vn -1.000000 0.000000 0.000000
vn -1.000000 0.000000 0.000000
vn -1.000000 0.000000 0.000000
vn 0.999970 0.007299 -0.002372
vn 0.999970 0.006209 -0.004511
vn 0.999970 0.004511 -0.006209
vn 0.999970 0.002372 -0.007299
vn 0.999970 -0.000000 -0.007675
vn 0.999971 -0.002372 -0.007299
vn 0.999970 -0.004511 -0.006209
vn 0.999970 -0.006209 -0.004511
vn 0.999970 -0.007299 -0.002372
vn 0.999970 -0.007675 -0.000000
vn 0.999971 -0.007299 0.002372
vn 0.999971 -0.006209 0.004511
vn 0.999970 -0.004511 0.006209
vn 0.999970 -0.002372 0.007299
vn 0.999970 0.000000 0.007675
vn 0.999970 0.002372 0.007299
vn 0.999971 0.004511 0.006209
vn 0.999971 0.006209 0.004511
vn 0.999970 0.007299 0.002372
vn 0.999970 0.007675 0.000000
vn -0.999970 0.006209 -0.004511
vn -0.999970 0.007299 -0.002372
vn -0.999970 0.004511 -0.006209
vn -0.999971 0.002372 -0.007299
vn -0.999970 -0.000000 -0.007675
vn -0.999971 -0.002372 -0.007299
vn -0.999970 -0.004511 -0.006209
vn -0.999971 -0.006209 -0.004511
vn -0.999970 -0.007299 -0.002372
vn -0.999970 -0.007675 0.000000
vn -0.999971 -0.007299 0.002372
vn -0.999971 -0.006209 0.004511
vn -0.999971 -0.004511 0.006209
vn -0.999970 -0.002372 0.007299
vn -0.999971 0.000000 0.007675
vn -0.999970 0.002372 0.007299
vn -0.999971 0.004511 0.006209
vn -0.999971 0.006209 0.004511
vn -0.999970 0.007299 0.002372
vn -0.999971 0.007675 0.000000
vn -0.000000 -0.809017 0.587785
vn -0.000000 -0.951057 0.309016
vn -0.000000 -0.951057 0.309016
vn -0.000000 -0.809017 0.587785
vn -0.000000 -0.587785 0.809017
vn -0.000000 -0.587785 0.809017
vn -0.000000 -0.309017 0.951057
vn -0.000000 -0.309017 0.951057
vn 0.000000 0.000000 1.000000
vn 0.000000 0.000000 1.000000
vn 0.000000 0.309017 0.951057
vn 0.000000 0.309017 0.951057
vn 0.000000 0.587785 0.809017
vn 0.000000 0.587785 0.809017
vn 0.000000 0.809017 0.587785
vn 0.000000 0.809017 0.587785
vn 0.000000 0.951057 0.309017
vn 0.000000 0.951057 0.309017
vn 0.000000 1.000000 -0.000000
vn 0.000000 1.000000 -0.000000
vn 0.000000 0.951056 -0.309017
vn 0.000000 0.951056 -0.309017
vn 0.000000 0.809017 -0.587785
vn 0.000000 0.809017 -0.587785
vn 0.000000 0.587785 -0.809017
vn 0.000000 0.587785 -0.809017
vn 0.000000 0.309017 -0.951057
vn 0.000000 0.309017 -0.951057
vn -0.000000 -0.000000 -1.000000
vn -0.000000 -0.000000 -1.000000
vn -0.000000 -0.309017 -0.951057
vn -0.000000 -0.309017 -0.951057
vn -0.000000 -0.587785 -0.809017
vn -0.000000 -0.587785 -0.809017
vn -0.000000 -0.809017 -0.587785
vn -0.000000 -0.809017 -0.587785
vn -0.000000 -0.951057 -0.309017
vn -0.000000 -0.951057 -0.309017
vn -0.000000 -1.000000 -0.000001
vn -0.000000 -1.000000 -0.000001
vn -0.000000 -0.951057 0.309016
vn -0.000000 -0.809017 0.587785
vn -0.000000 -0.809017 0.587785
vn -0.000000 -0.951057 0.309016
vn -0.000000 -0.587785 0.809017
vn -0.000000 -0.587785 0.809017
vn -0.000000 -0.309017 0.951057
vn -0.000000 -0.309017 0.951057
vn 0.000000 0.000000 1.000000
vn 0.000000 0.000000 1.000000
vn 0.000000 0.309017 0.951057
vn 0.000000 0.309017 0.951057
vn 0.000000 0.587785 0.809017
vn 0.000000 0.587785 0.809017
vn 0.000000 0.809017 0.587785
vn 0.000000 0.809017 0.587785
vn 0.000000 0.951057 0.309017
vn 0.000000 0.951057 0.309017
vn 0.000000 1.000000 -0.000000
vn 0.000000 1.000000 -0.000000
vn 0.000000 0.951056 -0.309017
vn 0.000000 0.951056 -0.309017
vn 0.000000 0.809017 -0.587785
vn 0.000000 0.809017 -0.587785
vn 0.000000 0.587785 -0.809017
vn 0.000000 0.587785 -0.809017
vn 0.000000 0.309017 -0.951057
vn 0.000000 0.309017 -0.951057
vn -0.000000 -0.000000 -1.000000
vn -0.000000 -0.000000 -1.000000
vn -0.000000 -0.309017 -0.951057
vn -0.000000 -0.309017 -0.951057
vn -0.000000 -0.587785 -0.809017
vn -0.000000 -0.587785 -0.809017
vn -0.000000 -0.809017 -0.587785
vn -0.000000 -0.809017 -0.587785
vn -0.000000 -0.951057 -0.309017
vn -0.000000 -0.951057 -0.309017
vn -0.000000 -1.000000 -0.000001
vn -0.000000 -1.000000 -0.000001
s 1
g pCylinder1
usemtl initialShadingGroup
f 1/21/1 2/22/2 22/43/3 21/42/4
f 2/22/2 3/23/5 23/44/6 22/43/3
f 3/23/5 4/24/7 24/45/8 23/44/6
f 4/24/7 5/25/9 25/46/10 24/45/8
f 5/25/9 6/26/11 26/47/12 25/46/10
f 6/26/11 7/27/13 27/48/14 26/47/12
f 7/27/13 8/28/15 28/49/16 27/48/14
f 8/28/15 9/29/17 29/50/18 28/49/16
f 9/29/17 10/30/19 30/51/20 29/50/18
f 10/30/19 11/31/21 31/52/22 30/51/20
f 11/31/21 12/32/23 32/53/24 31/52/22
f 12/32/23 13/33/25 33/54/26 32/53/24
f 13/33/25 14/34/27 34/55/28 33/54/26
f 14/34/27 15/35/29 35/56/30 34/55/28
f 15/35/29 16/36/31 36/57/32 35/56/30
f 16/36/31 17/37/33 37/58/34 36/57/32
f 17/37/33 18/38/35 38/59/36 37/58/34
f 18/38/35 19/39/37 39/60/38 38/59/36
f 19/39/37 20/40/39 40/61/40 39/60/38
f 20/40/39 1/41/1 21/62/4 40/61/40
s 2
f 82/125/41 81/126/42 83/83/43
f 84/127/44 82/125/41 83/83/43
f 85/128/45 84/127/44 83/83/43
f 86/129/46 85/128/45 83/83/43
f 87/130/47 86/129/46 83/83/43
f 88/131/48 87/130/47 83/83/43
f 89/132/49 88/131/48 83/83/43
f 90/133/50 89/132/49 83/83/43
f 91/134/51 90/133/50 83/83/43
f 92/135/52 91/134/51 83/83/43
f 93/136/53 92/135/52 83/83/43
f 94/137/54 93/136/53 83/83/43
f 95/138/55 94/137/54 83/83/43
f 96/139/56 95/138/55 83/83/43
f 97/140/57 96/139/56 83/83/43
f 98/141/58 97/140/57 83/83/43
f 99/142/59 98/141/58 83/83/43
f 100/143/60 99/142/59 83/83/43
f 101/144/61 100/143/60 83/83/43
f 81/126/42 101/144/61 83/83/43
s 3
f 102/145/62 103/146/63 104/84/64
f 103/146/63 105/147/65 104/84/64
f 105/147/65 106/148/66 104/84/64
f 106/148/66 107/149/67 104/84/64
f 107/149/67 108/150/68 104/84/64
f 108/150/68 109/151/69 104/84/64
f 109/151/69 110/152/70 104/84/64
f 110/152/70 111/153/71 104/84/64
f 111/153/71 112/154/72 104/84/64
f 112/154/72 113/155/73 104/84/64
f 113/155/73 114/156/74 104/84/64
f 114/156/74 115/157/75 104/84/64
f 115/157/75 116/158/76 104/84/64
f 116/158/76 117/159/77 104/84/64
f 117/159/77 118/160/78 104/84/64
f 118/160/78 119/161/79 104/84/64
f 119/161/79 120/162/80 104/84/64
f 120/162/80 121/163/81 104/84/64
f 121/163/81 122/164/82 104/84/64
f 122/164/82 102/145/62 104/84/64
s 1
f 2/2/2 1/1/1 41/86/83 42/85/84
f 3/3/5 2/2/2 42/85/84 43/87/85
f 4/4/7 3/3/5 43/87/85 44/88/86
f 5/5/9 4/4/7 44/88/86 45/89/87
f 6/6/11 5/5/9 45/89/87 46/90/88
f 7/7/13 6/6/11 46/90/88 47/91/89
f 8/8/15 7/7/13 47/91/89 48/92/90
f 9/9/17 8/8/15 48/92/90 49/93/91
f 10/10/19 9/9/17 49/93/91 50/94/92
f 11/11/21 10/10/19 50/94/92 51/95/93
f 12/12/23 11/11/21 51/95/93 52/96/94
f 13/13/25 12/12/23 52/96/94 53/97/95
f 14/14/27 13/13/25 53/97/95 54/98/96
f 15/15/29 14/14/27 54/98/96 55/99/97
f 16/16/31 15/15/29 55/99/97 56/100/98
f 17/17/33 16/16/31 56/100/98 57/101/99
f 18/18/35 17/17/33 57/101/99 58/102/100
f 19/19/37 18/18/35 58/102/100 59/103/101
f 20/20/39 19/19/37 59/103/101 60/104/102
f 1/1/1 20/20/39 60/104/102 41/86/83
f 21/81/4 22/80/3 62/106/103 61/105/104
f 22/80/3 23/79/6 63/107/105 62/106/103
f 23/79/6 24/78/8 64/108/106 63/107/105
f 24/78/8 25/77/10 65/109/107 64/108/106
f 25/77/10 26/76/12 66/110/108 65/109/107
f 26/76/12 27/75/14 67/111/109 66/110/108
f 27/75/14 28/74/16 68/112/110 67/111/109
f 28/74/16 29/73/18 69/113/111 68/112/110
f 29/73/18 30/72/20 70/114/112 69/113/111
f 30/72/20 31/71/22 71/115/113 70/114/112
f 31/71/22 32/70/24 72/116/114 71/115/113
f 32/70/24 33/69/26 73/117/115 72/116/114
f 33/69/26 34/68/28 74/118/116 73/117/115
f 34/68/28 35/67/30 75/119/117 74/118/116
f 35/67/30 36/66/32 76/120/118 75/119/117
f 36/66/32 37/65/34 77/121/119 76/120/118
f 37/65/34 38/64/36 78/122/120 77/121/119
f 38/64/36 39/63/38 79/123/121 78/122/120
f 39/63/38 40/82/40 80/124/122 79/123/121
f 40/82/40 21/81/4 61/105/104 80/124/122
s 4
f 42/85/123 41/86/124 81/126/125 82/125/126
f 43/87/127 42/85/123 82/125/126 84/127/128
f 44/88/129 43/87/127 84/127/128 85/128/130
f 45/89/131 44/88/129 85/128/130 86/129/132
f 46/90/133 45/89/131 86/129/132 87/130/134
f 47/91/135 46/90/133 87/130/134 88/131/136
f 48/92/137 47/91/135 88/131/136 89/132/138
f 49/93/139 48/92/137 89/132/138 90/133/140
f 50/94/141 49/93/139 90/133/140 91/134/142
f 51/95/143 50/94/141 91/134/142 92/135/144
f 52/96/145 51/95/143 92/135/144 93/136/146
f 53/97/147 52/96/145 93/136/146 94/137/148
f 54/98/149 53/97/147 94/137/148 95/138/150
f 55/99/151 54/98/149 95/138/150 96/139/152
f 56/100/153 55/99/151 96/139/152 97/140/154
f 57/101/155 56/100/153 97/140/154 98/141/156
f 58/102/157 57/101/155 98/141/156 99/142/158
f 59/103/159 58/102/157 99/142/158 100/143/160
f 60/104/161 59/103/159 100/143/160 101/144/162
f 41/86/124 60/104/161 101/144/162 81/126/125
s 5
f 61/105/163 62/106/164 103/146/165 102/145/166
f 62/106/164 63/107/167 105/147/168 103/146/165
f 63/107/167 64/108/169 106/148/170 105/147/168
f 64/108/169 65/109/171 107/149/172 106/148/170
f 65/109/171 66/110/173 108/150/174 107/149/172
f 66/110/173 67/111/175 109/151/176 108/150/174
f 67/111/175 68/112/177 110/152/178 109/151/176
f 68/112/177 69/113/179 111/153/180 110/152/178
f 69/113/179 70/114/181 112/154/182 111/153/180
f 70/114/181 71/115/183 113/155/184 112/154/182
f 71/115/183 72/116/185 114/156/186 113/155/184
f 72/116/185 73/117/187 115/157/188 114/156/186
f 73/117/187 74/118/189 116/158/190 115/157/188
f 74/118/189 75/119/191 117/159/192 116/158/190
f 75/119/191 76/120/193 118/160/194 117/159/192
f 76/120/193 77/121/195 119/161/196 118/160/194
f 77/121/195 78/122/197 120/162/198 119/161/196
f 78/122/197 79/123/199 121/163/200 120/162/198
f 79/123/199 80/124/201 122/164/202 121/163/200
f 80/124/201 61/105/163 102/145/166 122/164/202
