# This file uses centimeters as units for non-parametric coordinates.

mtllib ReverseBuff.mtl
g default
v -0.424969 -0.075046 0.500000
v -0.500000 -0.075046 0.424969
v 0.500000 -0.075046 0.424969
v 0.424969 -0.075046 0.500000
v -0.500000 0.075046 0.424969
v -0.424969 0.075046 0.500000
v -0.424969 0.150076 0.424969
v 0.424969 0.150076 0.424969
v 0.424969 0.075046 0.500000
v 0.500000 0.075046 0.424969
v -0.500000 0.075046 -0.424969
v -0.424969 0.150076 -0.424969
v -0.424969 0.075046 -0.500000
v 0.424969 0.075046 -0.500000
v 0.424969 0.150076 -0.424969
v 0.500000 0.075046 -0.424969
v -0.500000 -0.075046 -0.424969
v -0.424969 -0.075046 -0.500000
v 0.424969 -0.075046 -0.500000
v 0.500000 -0.075046 -0.424969
vt 0.139555 0.055115
vt 0.168601 0.055115
vt 0.168601 0.153874
vt 0.139555 0.153874
vt 0.139555 0.046397
vt 0.139555 0.162592
vt 0.081452 0.153874
vt 0.081452 0.055115
vt 0.081452 0.046397
vt 0.081452 0.162592
vt 0.257830 0.153874
vt 0.228784 0.153874
vt 0.228784 0.055115
vt 0.257830 0.055115
vt 0.228784 0.162592
vt 0.170680 0.153874
vt 0.170680 0.055115
vt 0.228784 0.046397
vt 0.170680 0.162592
vt 0.170680 0.046397
vt 0.229008 0.973915
vt 0.229008 0.319207
vt 0.883715 0.319207
vt 0.883715 0.973915
vt 0.259264 0.055115
vt 0.267982 0.046397
vt 0.366740 0.046397
vt 0.375459 0.055115
vt 0.375459 0.153874
vt 0.366740 0.162592
vt 0.267982 0.162592
vt 0.259264 0.153874
vt 0.257452 0.262529
vt 0.228407 0.262529
vt 0.228407 0.163770
vt 0.257452 0.163770
vt 0.170303 0.262529
vt 0.170303 0.163770
vt 0.110498 0.262529
vt 0.081452 0.262529
vt 0.081452 0.163770
vt 0.110498 0.163770
vt 0.168601 0.163770
vt 0.168601 0.262529
vn -0.707107 0.000000 0.707107
vn -0.707107 0.000000 0.707107
vn -0.707107 0.000000 0.707107
vn -0.707107 0.000000 0.707107
vn 0.707107 0.000000 0.707107
vn 0.707107 0.000000 0.707107
vn 0.707107 0.000000 0.707107
vn 0.707107 0.000000 0.707107
vn -0.707107 0.707107 0.000000
vn -0.707107 0.707107 0.000000
vn -0.707107 0.707107 0.000000
vn -0.707107 0.707107 0.000000
vn 0.000000 0.707107 0.707107
vn 0.000000 0.707107 0.707107
vn 0.000000 0.707107 0.707107
vn 0.000000 0.707107 0.707107
vn 0.707107 0.707107 0.000000
vn 0.707107 0.707107 0.000000
vn 0.707107 0.707107 0.000000
vn 0.707107 0.707107 0.000000
vn -0.707107 0.000000 -0.707107
vn -0.707107 0.000000 -0.707107
vn -0.707107 0.000000 -0.707107
vn -0.707107 0.000000 -0.707107
vn 0.000000 0.707107 -0.707107
vn 0.000000 0.707107 -0.707107
vn 0.000000 0.707107 -0.707107
vn 0.000000 0.707107 -0.707107
vn 0.707107 0.000000 -0.707107
vn 0.707107 0.000000 -0.707107
vn 0.707107 0.000000 -0.707107
vn 0.707107 0.000000 -0.707107
vn 0.000000 0.000000 1.000000
vn 0.000000 0.000000 1.000000
vn 0.000000 0.000000 1.000000
vn 0.000000 0.000000 1.000000
vn 0.000000 1.000000 0.000000
vn 0.000000 1.000000 0.000000
vn 0.000000 1.000000 0.000000
vn 0.000000 1.000000 0.000000
vn 0.000000 0.000000 -1.000000
vn 0.000000 0.000000 -1.000000
vn 0.000000 0.000000 -1.000000
vn 0.000000 0.000000 -1.000000
vn 1.000000 0.000000 0.000000
vn 1.000000 0.000000 0.000000
vn 1.000000 0.000000 0.000000
vn 1.000000 0.000000 0.000000
vn -1.000000 0.000000 0.000000
vn -1.000000 0.000000 0.000000
vn -1.000000 0.000000 0.000000
vn -1.000000 0.000000 0.000000
vn -0.577350 0.577350 0.577350
vn -0.577350 0.577350 0.577350
vn -0.577350 0.577350 0.577350
vn 0.577350 0.577350 0.577350
vn 0.577350 0.577350 0.577350
vn 0.577350 0.577350 0.577350
vn -0.577350 0.577350 -0.577350
vn -0.577350 0.577350 -0.577350
vn -0.577350 0.577350 -0.577350
vn 0.577350 0.577350 -0.577350
vn 0.577350 0.577350 -0.577350
vn 0.577350 0.577350 -0.577350
vn 0.000000 -1.000000 0.000000
vn 0.000000 -1.000000 0.000000
vn 0.000000 -1.000000 0.000000
vn 0.000000 -1.000000 0.000000
vn 0.000000 -1.000000 0.000000
vn 0.000000 -1.000000 0.000000
vn 0.000000 -1.000000 0.000000
vn 0.000000 -1.000000 0.000000
s off
g pCube1
usemtl initialShadingGroup
f 2/8/1 1/9/2 6/5/3 5/1/4
f 4/19/5 3/16/6 10/12/7 9/15/8
f 5/1/9 7/2/10 12/3/11 11/4/12
f 7/33/13 6/34/14 9/35/15 8/36/16
f 8/11/17 10/12/18 16/13/19 15/14/20
f 11/4/21 13/6/22 18/10/23 17/7/24
f 13/39/25 12/40/26 15/41/27 14/42/28
f 14/18/29 16/13/30 20/17/31 19/20/32
f 1/37/33 4/38/34 9/35/35 6/34/36
f 7/21/37 8/22/38 15/23/39 12/24/40
f 13/39/41 14/42/42 19/43/43 18/44/44
f 3/16/45 20/17/46 16/13/47 10/12/48
f 17/7/49 2/8/50 5/1/51 11/4/52
f 5/1/53 6/5/54 7/2/55
f 8/11/56 9/15/57 10/12/58
f 11/4/59 12/3/60 13/6/61
f 14/18/62 15/14/63 16/13/64
f 17/25/65 18/26/66 19/27/67 20/28/68 3/29/69 4/30/70 1/31/71 2/32/72
