# This file uses centimeters as units for non-parametric coordinates.

mtllib Arrow.mtl
g default
v 0.951057 -0.309017 -0.000435
v 0.809018 -0.587786 -0.000435
v 0.587786 -0.809017 -0.000435
v 0.309017 -0.951057 -0.000435
v 0.000000 -1.000000 -0.000435
v -0.309017 -0.951057 -0.000435
v -0.587785 -0.809017 -0.000435
v -0.809017 -0.587785 -0.000435
v -0.951057 -0.309017 -0.000435
v -1.000000 0.000000 -0.000435
v -0.951057 0.309017 -0.000435
v -0.809017 0.587785 -0.000435
v -0.587785 0.809017 -0.000435
v -0.309017 0.951057 -0.000435
v -0.000000 1.000000 -0.000435
v 0.309017 0.951057 -0.000435
v 0.587785 0.809017 -0.000435
v 0.809017 0.587785 -0.000435
v 0.951057 0.309017 -0.000435
v 1.000000 0.000000 -0.000435
v 0.000000 -0.000000 -2.000435
v 0.483840 -0.000000 -0.000435
v 0.460160 -0.149515 -0.000435
v 0.460159 0.149515 -0.000435
v 0.391435 0.284394 -0.000435
v 0.284394 0.391435 -0.000435
v 0.149515 0.460159 -0.000435
v -0.000000 0.483840 -0.000435
v -0.149515 0.460159 -0.000435
v -0.284394 0.391435 -0.000435
v -0.391435 0.284394 -0.000435
v -0.460160 0.149515 -0.000435
v -0.483840 -0.000000 -0.000435
v -0.460160 -0.149515 -0.000435
v -0.391435 -0.284394 -0.000435
v -0.284394 -0.391435 -0.000435
v -0.149515 -0.460160 -0.000435
v -0.000000 -0.483841 -0.000435
v 0.149515 -0.460160 -0.000435
v 0.284394 -0.391435 -0.000435
v 0.391435 -0.284394 -0.000435
v 0.483840 -0.000000 1.997396
v 0.460160 -0.149515 1.997396
v 0.460159 0.149515 1.997396
v 0.391435 0.284394 1.997396
v 0.284394 0.391435 1.997396
v 0.149515 0.460159 1.997396
v -0.000000 0.483840 1.997396
v -0.149515 0.460159 1.997396
v -0.284394 0.391435 1.997396
v -0.391435 0.284394 1.997396
v -0.460160 0.149515 1.997396
v -0.483840 -0.000000 1.997396
v -0.460160 -0.149515 1.997396
v -0.391435 -0.284394 1.997396
v -0.284394 -0.391435 1.997396
v -0.149515 -0.460160 1.997396
v -0.000000 -0.483841 1.997396
v 0.149515 -0.460160 1.997396
v 0.284394 -0.391435 1.997396
v 0.391435 -0.284394 1.997396
v 0.472000 -0.074758 0.998481
v 0.472000 -0.074758 -0.000435
v 0.477920 -0.000000 0.998481
v 0.472000 -0.074758 1.997396
v 0.454529 -0.147686 0.998481
v 0.472000 0.074757 0.998481
v 0.472000 0.074757 -0.000435
v 0.454529 0.147685 0.998481
v 0.472000 0.074757 1.997396
v 0.425797 0.216954 0.998481
v 0.425797 0.216954 -0.000435
v 0.386645 0.280914 0.998481
v 0.425797 0.216954 1.997396
v 0.337914 0.337914 0.998481
v 0.337914 0.337914 -0.000435
v 0.280914 0.386645 0.998481
v 0.337914 0.337914 1.997396
v 0.216954 0.425797 0.998481
v 0.216954 0.425797 -0.000435
v 0.147685 0.454529 0.998481
v 0.216954 0.425797 1.997396
v 0.074757 0.472000 0.998481
v 0.074757 0.472000 -0.000435
v -0.000000 0.477920 0.998481
v 0.074757 0.472000 1.997396
v -0.074757 0.472000 0.998481
v -0.074757 0.472000 -0.000435
v -0.147685 0.454529 0.998481
v -0.074757 0.472000 1.997396
v -0.216955 0.425797 0.998481
v -0.216955 0.425797 -0.000435
v -0.280914 0.386645 0.998481
v -0.216955 0.425797 1.997396
v -0.337915 0.337914 0.998481
v -0.337915 0.337914 -0.000435
v -0.386646 0.280914 0.998481
v -0.337915 0.337914 1.997396
v -0.425797 0.216954 0.998481
v -0.425797 0.216954 -0.000435
v -0.454529 0.147685 0.998481
v -0.425797 0.216954 1.997396
v -0.472000 0.074757 0.998481
v -0.472000 0.074757 -0.000435
v -0.477920 -0.000000 0.998481
v -0.472000 0.074757 1.997396
v -0.472000 -0.074758 0.998481
v -0.472000 -0.074758 -0.000435
v -0.454529 -0.147686 0.998481
v -0.472000 -0.074758 1.997396
v -0.425797 -0.216955 0.998481
v -0.425797 -0.216955 -0.000435
v -0.386646 -0.280914 0.998481
v -0.425797 -0.216955 1.997396
v -0.337915 -0.337915 0.998481
v -0.337915 -0.337915 -0.000435
v -0.280914 -0.386646 0.998481
v -0.337915 -0.337915 1.997396
v -0.216955 -0.425797 0.998481
v -0.216955 -0.425797 -0.000435
v -0.147686 -0.454529 0.998481
v -0.216955 -0.425797 1.997396
v -0.074758 -0.472000 0.998481
v -0.074758 -0.472000 -0.000435
v -0.000000 -0.477920 0.998481
v -0.074758 -0.472000 1.997396
v 0.074757 -0.472000 0.998481
v 0.074757 -0.472000 -0.000435
v 0.147685 -0.454529 0.998481
v 0.074757 -0.472000 1.997396
v 0.216955 -0.425798 0.998481
v 0.216955 -0.425798 -0.000435
v 0.280914 -0.386646 0.998481
v 0.216955 -0.425798 1.997396
v 0.337915 -0.337915 0.998481
v 0.337915 -0.337915 -0.000435
v 0.386646 -0.280915 0.998481
v 0.337915 -0.337915 1.997396
v 0.425797 -0.216955 0.998481
v 0.425797 -0.216955 -0.000435
v 0.425797 -0.216955 1.997396
vt 0.737764 0.172746
vt 0.702254 0.103054
vt 0.646946 0.047746
vt 0.577254 0.012236
vt 0.500000 -0.000000
vt 0.422746 0.012236
vt 0.353054 0.047746
vt 0.297746 0.103054
vt 0.262236 0.172746
vt 0.250000 0.250000
vt 0.262236 0.327254
vt 0.297746 0.396946
vt 0.353054 0.452254
vt 0.422746 0.487764
vt 0.500000 0.500000
vt 0.577254 0.487764
vt 0.646946 0.452254
vt 0.702254 0.396946
vt 0.737764 0.327254
vt 0.750000 0.250000
vt 0.250000 0.500000
vt 0.275000 0.500000
vt 0.300000 0.500000
vt 0.325000 0.500000
vt 0.350000 0.500000
vt 0.375000 0.500000
vt 0.400000 0.500000
vt 0.425000 0.500000
vt 0.450000 0.500000
vt 0.475000 0.500000
vt 0.500000 0.500000
vt 0.525000 0.500000
vt 0.550000 0.500000
vt 0.575000 0.500000
vt 0.600000 0.500000
vt 0.625000 0.500000
vt 0.650000 0.500000
vt 0.675000 0.500000
vt 0.700000 0.500000
vt 0.725000 0.500000
vt 0.750000 0.500000
vt 0.500000 1.000000
vt 0.733400 0.174164
vt 0.745412 0.250000
vt 0.733400 0.325836
vt 0.698542 0.394249
vt 0.644249 0.448542
vt 0.575836 0.483400
vt 0.500000 0.495412
vt 0.424164 0.483400
vt 0.355751 0.448542
vt 0.301458 0.394249
vt 0.266600 0.325836
vt 0.254588 0.250000
vt 0.266600 0.174164
vt 0.301458 0.105751
vt 0.355751 0.051458
vt 0.424164 0.016600
vt 0.500000 0.004588
vt 0.575836 0.016600
vt 0.644249 0.051458
vt 0.698542 0.105751
vt 0.732269 0.174531
vt 0.744222 0.250000
vt 0.732269 0.325469
vt 0.697580 0.393550
vt 0.643550 0.447580
vt 0.575469 0.482269
vt 0.500000 0.494222
vt 0.424531 0.482269
vt 0.356450 0.447580
vt 0.302420 0.393550
vt 0.267731 0.325469
vt 0.255778 0.250000
vt 0.267731 0.174531
vt 0.302420 0.106450
vt 0.356450 0.052420
vt 0.424531 0.017731
vt 0.500000 0.005778
vt 0.575469 0.017731
vt 0.643550 0.052420
vt 0.697580 0.106450
vt 0.743882 0.211373
vt 0.743882 0.211373
vt 0.746941 0.250000
vt 0.743882 0.211373
vt 0.734855 0.173691
vt 0.743882 0.288627
vt 0.743882 0.288627
vt 0.734855 0.326309
vt 0.743882 0.288627
vt 0.720009 0.362100
vt 0.720009 0.362100
vt 0.699780 0.395148
vt 0.720009 0.362100
vt 0.674600 0.424600
vt 0.674600 0.424600
vt 0.645148 0.449780
vt 0.674600 0.424600
vt 0.612100 0.470009
vt 0.612100 0.470009
vt 0.576309 0.484855
vt 0.612100 0.470009
vt 0.538627 0.493882
vt 0.538627 0.493882
vt 0.500000 0.496941
vt 0.538627 0.493882
vt 0.461373 0.493882
vt 0.461373 0.493882
vt 0.423691 0.484855
vt 0.461373 0.493882
vt 0.387900 0.470009
vt 0.387900 0.470009
vt 0.354852 0.449780
vt 0.387900 0.470009
vt 0.325400 0.424600
vt 0.325400 0.424600
vt 0.300220 0.395148
vt 0.325400 0.424600
vt 0.279991 0.362100
vt 0.279991 0.362100
vt 0.265145 0.326309
vt 0.279991 0.362100
vt 0.256118 0.288627
vt 0.256118 0.288627
vt 0.253059 0.250000
vt 0.256118 0.288627
vt 0.256118 0.211373
vt 0.256118 0.211373
vt 0.265145 0.173691
vt 0.256118 0.211373
vt 0.279991 0.137900
vt 0.279991 0.137900
vt 0.300220 0.104852
vt 0.279991 0.137900
vt 0.325400 0.075400
vt 0.325400 0.075400
vt 0.354852 0.050220
vt 0.325400 0.075400
vt 0.387900 0.029991
vt 0.387900 0.029991
vt 0.423691 0.015145
vt 0.387900 0.029991
vt 0.461373 0.006118
vt 0.461373 0.006118
vt 0.500000 0.003059
vt 0.461373 0.006118
vt 0.538627 0.006118
vt 0.538627 0.006118
vt 0.576309 0.015145
vt 0.538627 0.006118
vt 0.612100 0.029991
vt 0.612100 0.029991
vt 0.645148 0.050220
vt 0.612100 0.029991
vt 0.674600 0.075400
vt 0.674600 0.075400
vt 0.699780 0.104852
vt 0.674600 0.075400
vt 0.720009 0.137900
vt 0.720009 0.137900
vt 0.720009 0.137900
vn 0.000000 -0.000001 1.000000
vn 0.000000 -0.000001 1.000000
vn 0.000000 -0.000001 1.000000
vn 0.000000 -0.000001 1.000000
vn 0.000000 -0.000001 1.000000
vn 0.000000 -0.000001 1.000000
vn 0.000000 -0.000001 1.000000
vn 0.000000 -0.000001 1.000000
vn 0.000000 -0.000001 1.000000
vn 0.000000 -0.000001 1.000000
vn 0.000000 -0.000001 1.000000
vn 0.000000 -0.000001 1.000000
vn 0.000000 -0.000001 1.000000
vn 0.000000 -0.000001 1.000000
vn 0.000000 -0.000001 1.000000
vn 0.000000 -0.000001 1.000000
vn 0.000000 -0.000001 1.000000
vn 0.000000 -0.000001 1.000000
vn 0.000000 -0.000001 1.000000
vn 0.000000 -0.000001 1.000000
vn 0.000000 -0.000001 1.000000
vn 0.000000 -0.000001 1.000000
vn 0.000000 -0.000001 1.000000
vn 0.000000 -0.000001 1.000000
vn 0.000000 -0.000001 1.000000
vn 0.000000 -0.000001 1.000000
vn 0.000000 -0.000001 1.000000
vn 0.000000 -0.000001 1.000000
vn 0.000000 -0.000001 1.000000
vn 0.000000 -0.000001 1.000000
vn 0.000000 -0.000001 1.000000
vn 0.000000 -0.000001 1.000000
vn 0.000000 -0.000001 1.000000
vn 0.000000 -0.000001 1.000000
vn 0.000000 -0.000001 1.000000
vn 0.000000 -0.000001 1.000000
vn 0.000000 -0.000001 1.000000
vn 0.000000 -0.000001 1.000000
vn 0.000000 -0.000001 1.000000
vn 0.000000 -0.000001 1.000000
vn 0.941966 -0.306062 -0.137935
vn 0.801284 -0.582167 -0.137935
vn -0.000000 -0.000001 -1.000000
vn 0.582167 -0.801284 -0.137935
vn 0.306063 -0.941966 -0.137935
vn -0.000000 -0.990441 -0.137935
vn -0.306063 -0.941966 -0.137935
vn -0.582167 -0.801284 -0.137935
vn -0.801284 -0.582167 -0.137935
vn -0.941966 -0.306063 -0.137935
vn -0.990441 -0.000000 -0.137935
vn -0.941966 0.306063 -0.137935
vn -0.801284 0.582167 -0.137935
vn -0.582167 0.801284 -0.137935
vn -0.306063 0.941966 -0.137935
vn 0.000000 0.990441 -0.137935
vn 0.306063 0.941966 -0.137935
vn 0.582167 0.801284 -0.137935
vn 0.801284 0.582167 -0.137935
vn 0.941966 0.306063 -0.137935
vn 0.990441 0.000001 -0.137935
vn 0.000000 0.000000 1.000000
vn 0.000000 0.000000 1.000000
vn 0.000000 0.000000 1.000000
vn 0.000000 0.000000 1.000000
vn 0.000000 0.000000 1.000000
vn 0.000000 0.000000 1.000000
vn 0.000000 0.000000 1.000000
vn 0.000000 0.000000 1.000000
vn 0.000000 0.000000 1.000000
vn 0.000000 -0.000000 1.000000
vn 0.000000 0.000000 1.000000
vn 0.000000 -0.000000 1.000000
vn 0.000000 -0.000000 1.000000
vn 0.000000 0.000000 1.000000
vn 0.000000 0.000000 1.000000
vn 0.000000 0.000000 1.000000
vn 0.000000 0.000000 1.000000
vn 0.000000 0.000000 1.000000
vn 0.000000 0.000000 1.000000
vn 0.000000 0.000000 1.000000
vn 0.000000 0.000000 1.000000
vn 0.000000 0.000000 1.000000
vn 0.000000 0.000000 1.000000
vn 0.000000 0.000000 1.000000
vn 0.000000 0.000000 1.000000
vn 0.000000 -0.000000 1.000000
vn 0.000000 0.000000 1.000000
vn 0.000000 -0.000000 1.000000
vn 0.000000 -0.000000 1.000000
vn 0.000000 -0.000000 1.000000
vn 0.000000 -0.000000 1.000000
vn 0.000000 -0.000000 1.000000
vn 0.000000 -0.000000 1.000000
vn 0.000000 0.000000 1.000000
vn 0.000000 0.000000 1.000000
vn 0.000000 0.000000 1.000000
vn 0.000000 0.000000 1.000000
vn 0.000000 0.000000 1.000000
vn 0.000000 0.000000 1.000000
vn 0.000000 0.000000 1.000000
vn 0.951057 -0.309016 0.000000
vn 0.951053 -0.309015 0.002963
vn 0.987684 -0.156432 0.002945
vn 0.987689 -0.156432 -0.000000
vn 1.000000 0.000001 -0.000000
vn 0.999996 0.000001 0.002963
vn 0.987684 0.156433 0.002945
vn 0.987688 0.156434 -0.000000
vn 0.951056 0.309017 -0.000000
vn 0.951052 0.309016 0.002963
vn 0.891002 0.453989 0.002945
vn 0.891006 0.453991 0.000000
vn 0.809017 0.587785 -0.000000
vn 0.809013 0.587783 0.002963
vn 0.707104 0.707104 0.002945
vn 0.707107 0.707107 -0.000000
vn 0.587785 0.809017 -0.000000
vn 0.587783 0.809013 0.002963
vn 0.453989 0.891002 0.002945
vn 0.453991 0.891006 -0.000000
vn 0.309018 0.951056 -0.000000
vn 0.309016 0.951052 0.002963
vn 0.156434 0.987684 0.002945
vn 0.156435 0.987688 -0.000000
vn 0.000000 1.000000 -0.000000
vn 0.000000 0.999996 0.002963
vn -0.156434 0.987684 0.002945
vn -0.156435 0.987688 -0.000000
vn -0.309018 0.951056 0.000000
vn -0.309016 0.951052 0.002963
vn -0.453989 0.891002 0.002945
vn -0.453991 0.891006 0.000000
vn -0.587785 0.809017 0.000000
vn -0.587783 0.809013 0.002963
vn -0.707104 0.707104 0.002945
vn -0.707107 0.707107 0.000000
vn -0.809017 0.587786 0.000000
vn -0.809013 0.587783 0.002963
vn -0.891002 0.453990 0.002945
vn -0.891006 0.453992 0.000000
vn -0.951056 0.309017 -0.000000
vn -0.951052 0.309016 0.002963
vn -0.987684 0.156433 0.002945
vn -0.987689 0.156434 -0.000000
vn -1.000000 -0.000000 0.000000
vn -0.999996 0.000000 0.002963
vn -0.987684 -0.156433 0.002945
vn -0.987688 -0.156434 0.000000
vn -0.951056 -0.309017 0.000000
vn -0.951052 -0.309016 0.002963
vn -0.891002 -0.453989 0.002945
vn -0.891006 -0.453991 0.000000
vn -0.809017 -0.587785 0.000000
vn -0.809013 -0.587783 0.002963
vn -0.707104 -0.707104 0.002945
vn -0.707107 -0.707107 0.000000
vn -0.587786 -0.809017 -0.000000
vn -0.587783 -0.809013 0.002963
vn -0.453990 -0.891002 0.002945
vn -0.453992 -0.891006 -0.000000
vn -0.309018 -0.951056 -0.000000
vn -0.309017 -0.951052 0.002963
vn -0.156434 -0.987684 0.002945
vn -0.156435 -0.987688 -0.000000
vn 0.000000 -1.000000 0.000000
vn -0.000000 -0.999996 0.002963
vn 0.156434 -0.987684 0.002945
vn 0.156435 -0.987688 0.000000
vn 0.309017 -0.951056 0.000000
vn 0.309016 -0.951052 0.002963
vn 0.453989 -0.891002 0.002945
vn 0.453991 -0.891006 -0.000000
vn 0.587785 -0.809017 0.000000
vn 0.587783 -0.809013 0.002963
vn 0.707104 -0.707104 0.002945
vn 0.707107 -0.707107 0.000000
vn 0.809017 -0.587785 0.000000
vn 0.809013 -0.587783 0.002963
vn 0.891002 -0.453989 0.002945
vn 0.891006 -0.453991 0.000000
vn 0.999996 0.000001 -0.002963
vn 0.987684 -0.156432 -0.002945
vn 0.951053 -0.309015 -0.002963
vn 0.951052 0.309016 -0.002963
vn 0.987684 0.156433 -0.002945
vn 0.809013 0.587783 -0.002963
vn 0.891002 0.453989 -0.002945
vn 0.587783 0.809013 -0.002963
vn 0.707104 0.707104 -0.002945
vn 0.309016 0.951052 -0.002963
vn 0.453989 0.891002 -0.002945
vn 0.000000 0.999996 -0.002963
vn 0.156434 0.987684 -0.002945
vn -0.309016 0.951052 -0.002963
vn -0.156434 0.987684 -0.002945
vn -0.587783 0.809013 -0.002963
vn -0.453989 0.891002 -0.002945
vn -0.809013 0.587783 -0.002963
vn -0.707104 0.707104 -0.002945
vn -0.951052 0.309016 -0.002963
vn -0.891002 0.453990 -0.002945
vn -0.999996 -0.000000 -0.002963
vn -0.987684 0.156433 -0.002945
vn -0.951052 -0.309016 -0.002963
vn -0.987684 -0.156433 -0.002945
vn -0.809013 -0.587783 -0.002963
vn -0.891002 -0.453989 -0.002945
vn -0.587783 -0.809013 -0.002963
vn -0.707104 -0.707103 -0.002945
vn -0.309017 -0.951052 -0.002963
vn -0.453990 -0.891002 -0.002945
vn 0.000000 -0.999996 -0.002963
vn -0.156434 -0.987684 -0.002945
vn 0.309016 -0.951052 -0.002963
vn 0.156434 -0.987684 -0.002945
vn 0.587783 -0.809013 -0.002963
vn 0.453989 -0.891003 -0.002945
vn 0.809013 -0.587783 -0.002963
vn 0.707104 -0.707104 -0.002945
vn 0.891002 -0.453989 -0.002945
s off
g pCone1
usemtl initialShadingGroup
f 43/63/1 65/86/2 42/64/3 70/91/4 44/65/5 74/95/6 45/66/7 78/99/8 46/67/9 82/103/10 47/68/11 86/107/12 48/69/13 90/111/14 49/70/15 94/115/16 50/71/17 98/119/18 51/72/19 102/123/20 52/73/21 106/127/22 53/74/23 110/131/24 54/75/25 114/135/26 55/76/27 118/139/28 56/77/29 122/143/30 57/78/31 126/147/32 58/79/33 130/151/34 59/80/35 134/155/36 60/81/37 138/159/38 61/82/39 141/162/40
s 1
f 1/21/41 2/22/42 21/42/43
f 2/22/42 3/23/44 21/42/43
f 3/23/44 4/24/45 21/42/43
f 4/24/45 5/25/46 21/42/43
f 5/25/46 6/26/47 21/42/43
f 6/26/47 7/27/48 21/42/43
f 7/27/48 8/28/49 21/42/43
f 8/28/49 9/29/50 21/42/43
f 9/29/50 10/30/51 21/42/43
f 10/30/51 11/31/52 21/42/43
f 11/31/52 12/32/53 21/42/43
f 12/32/53 13/33/54 21/42/43
f 13/33/54 14/34/55 21/42/43
f 14/34/55 15/35/56 21/42/43
f 15/35/56 16/36/57 21/42/43
f 16/36/57 17/37/58 21/42/43
f 17/37/58 18/38/59 21/42/43
f 18/38/59 19/39/60 21/42/43
f 19/39/60 20/40/61 21/42/43
f 20/40/61 1/41/41 21/42/43
f 1/1/41 20/20/61 22/44/62 63/84/63 23/43/64
f 20/20/61 19/19/60 24/45/65 68/89/66 22/44/62
f 19/19/60 18/18/59 25/46/67 72/93/68 24/45/65
f 18/18/59 17/17/58 26/47/69 76/97/70 25/46/67
f 17/17/58 16/16/57 27/48/71 80/101/72 26/47/69
f 16/16/57 15/15/56 28/49/73 84/105/74 27/48/71
f 15/15/56 14/14/55 29/50/75 88/109/76 28/49/73
f 14/14/55 13/13/54 30/51/77 92/113/78 29/50/75
f 13/13/54 12/12/53 31/52/79 96/117/80 30/51/77
f 12/12/53 11/11/52 32/53/81 100/121/82 31/52/79
f 11/11/52 10/10/51 33/54/83 104/125/84 32/53/81
f 10/10/51 9/9/50 34/55/85 108/129/86 33/54/83
f 9/9/50 8/8/49 35/56/87 112/133/88 34/55/85
f 8/8/49 7/7/48 36/57/89 116/137/90 35/56/87
f 7/7/48 6/6/47 37/58/91 120/141/92 36/57/89
f 6/6/47 5/5/46 38/59/93 124/145/94 37/58/91
f 5/5/46 4/4/45 39/60/95 128/149/96 38/59/93
f 4/4/45 3/3/44 40/61/97 132/153/98 39/60/95
f 3/3/44 2/2/42 41/62/99 136/157/100 40/61/97
f 2/2/42 1/1/41 23/43/64 140/161/101 41/62/99
s 2
f 66/87/102 23/43/103 63/84/104 62/83/105
f 64/85/106 22/44/107 68/89/108 67/88/109
f 69/90/110 24/45/111 72/93/112 71/92/113
f 73/94/114 25/46/115 76/97/116 75/96/117
f 77/98/118 26/47/119 80/101/120 79/100/121
f 81/102/122 27/48/123 84/105/124 83/104/125
f 85/106/126 28/49/127 88/109/128 87/108/129
f 89/110/130 29/50/131 92/113/132 91/112/133
f 93/114/134 30/51/135 96/117/136 95/116/137
f 97/118/138 31/52/139 100/121/140 99/120/141
f 101/122/142 32/53/143 104/125/144 103/124/145
f 105/126/146 33/54/147 108/129/148 107/128/149
f 109/130/150 34/55/151 112/133/152 111/132/153
f 113/134/154 35/56/155 116/137/156 115/136/157
f 117/138/158 36/57/159 120/141/160 119/140/161
f 121/142/162 37/58/163 124/145/164 123/144/165
f 125/146/166 38/59/167 128/149/168 127/148/169
f 129/150/170 39/60/171 132/153/172 131/152/173
f 133/154/174 40/61/175 136/157/176 135/156/177
f 137/158/178 41/62/179 140/161/180 139/160/181
f 63/84/104 22/44/107 64/85/106 62/83/105
f 64/85/106 42/64/182 65/86/183 62/83/105
f 65/86/183 43/63/184 66/87/102 62/83/105
f 68/89/108 24/45/111 69/90/110 67/88/109
f 69/90/110 44/65/185 70/91/186 67/88/109
f 70/91/186 42/64/182 64/85/106 67/88/109
f 72/93/112 25/46/115 73/94/114 71/92/113
f 73/94/114 45/66/187 74/95/188 71/92/113
f 74/95/188 44/65/185 69/90/110 71/92/113
f 76/97/116 26/47/119 77/98/118 75/96/117
f 77/98/118 46/67/189 78/99/190 75/96/117
f 78/99/190 45/66/187 73/94/114 75/96/117
f 80/101/120 27/48/123 81/102/122 79/100/121
f 81/102/122 47/68/191 82/103/192 79/100/121
f 82/103/192 46/67/189 77/98/118 79/100/121
f 84/105/124 28/49/127 85/106/126 83/104/125
f 85/106/126 48/69/193 86/107/194 83/104/125
f 86/107/194 47/68/191 81/102/122 83/104/125
f 88/109/128 29/50/131 89/110/130 87/108/129
f 89/110/130 49/70/195 90/111/196 87/108/129
f 90/111/196 48/69/193 85/106/126 87/108/129
f 92/113/132 30/51/135 93/114/134 91/112/133
f 93/114/134 50/71/197 94/115/198 91/112/133
f 94/115/198 49/70/195 89/110/130 91/112/133
f 96/117/136 31/52/139 97/118/138 95/116/137
f 97/118/138 51/72/199 98/119/200 95/116/137
f 98/119/200 50/71/197 93/114/134 95/116/137
f 100/121/140 32/53/143 101/122/142 99/120/141
f 101/122/142 52/73/201 102/123/202 99/120/141
f 102/123/202 51/72/199 97/118/138 99/120/141
f 104/125/144 33/54/147 105/126/146 103/124/145
f 105/126/146 53/74/203 106/127/204 103/124/145
f 106/127/204 52/73/201 101/122/142 103/124/145
f 108/129/148 34/55/151 109/130/150 107/128/149
f 109/130/150 54/75/205 110/131/206 107/128/149
f 110/131/206 53/74/203 105/126/146 107/128/149
f 112/133/152 35/56/155 113/134/154 111/132/153
f 113/134/154 55/76/207 114/135/208 111/132/153
f 114/135/208 54/75/205 109/130/150 111/132/153
f 116/137/156 36/57/159 117/138/158 115/136/157
f 117/138/158 56/77/209 118/139/210 115/136/157
f 118/139/210 55/76/207 113/134/154 115/136/157
f 120/141/160 37/58/163 121/142/162 119/140/161
f 121/142/162 57/78/211 122/143/212 119/140/161
f 122/143/212 56/77/209 117/138/158 119/140/161
f 124/145/164 38/59/167 125/146/166 123/144/165
f 125/146/166 58/79/213 126/147/214 123/144/165
f 126/147/214 57/78/211 121/142/162 123/144/165
f 128/149/168 39/60/171 129/150/170 127/148/169
f 129/150/170 59/80/215 130/151/216 127/148/169
f 130/151/216 58/79/213 125/146/166 127/148/169
f 132/153/172 40/61/175 133/154/174 131/152/173
f 133/154/174 60/81/217 134/155/218 131/152/173
f 134/155/218 59/80/215 129/150/170 131/152/173
f 136/157/176 41/62/179 137/158/178 135/156/177
f 137/158/178 61/82/219 138/159/220 135/156/177
f 138/159/220 60/81/217 133/154/174 135/156/177
f 140/161/180 23/43/103 66/87/102 139/160/181
f 66/87/102 43/63/184 141/162/221 139/160/181
f 141/162/221 61/82/219 137/158/178 139/160/181
