# This file uses centimeters as units for non-parametric coordinates.

mtllib Checkpoint.mtl
g default
v -2.000000 -0.975000 0.250000
v 2.000000 -0.975000 0.250000
v -2.000000 0.025000 0.250000
v 2.000000 0.025000 0.250000
v -2.000000 0.025000 -0.250000
v 2.000000 0.025000 -0.250000
v -2.000000 -0.975000 -0.250000
v 2.000000 -0.975000 -0.250000
vt 0.167306 0.496763
vt 0.270601 0.496763
vt 0.167306 0.600058
vt 0.270601 0.600058
vt 0.167306 0.703354
vt 0.270601 0.703354
vt 0.167306 0.806649
vt 0.270601 0.806649
vt 0.167306 0.909945
vt 0.270601 0.909945
vt 0.373897 0.496763
vt 0.373897 0.600058
vt 0.064010 0.496763
vt 0.064010 0.600058
vn 0.000000 0.000000 1.000000
vn 0.000000 0.000000 1.000000
vn 0.000000 0.000000 1.000000
vn 0.000000 0.000000 1.000000
vn 0.000000 1.000000 0.000000
vn 0.000000 1.000000 0.000000
vn 0.000000 1.000000 0.000000
vn 0.000000 1.000000 0.000000
vn 0.000000 0.000000 -1.000000
vn 0.000000 0.000000 -1.000000
vn 0.000000 0.000000 -1.000000
vn 0.000000 0.000000 -1.000000
vn 0.000000 -1.000000 0.000000
vn 0.000000 -1.000000 0.000000
vn 0.000000 -1.000000 0.000000
vn 0.000000 -1.000000 0.000000
vn 1.000000 0.000000 0.000000
vn 1.000000 0.000000 0.000000
vn 1.000000 0.000000 0.000000
vn 1.000000 0.000000 0.000000
vn -1.000000 0.000000 0.000000
vn -1.000000 0.000000 0.000000
vn -1.000000 0.000000 0.000000
vn -1.000000 0.000000 0.000000
s off
g pCube1
usemtl initialShadingGroup
f 1/1/1 2/2/2 4/4/3 3/3/4
f 3/3/5 4/4/6 6/6/7 5/5/8
f 5/5/9 6/6/10 8/8/11 7/7/12
f 7/7/13 8/8/14 2/10/15 1/9/16
f 2/2/17 8/11/18 6/12/19 4/4/20
f 7/13/21 1/1/22 3/3/23 5/14/24
g default
v -1.500000 1.611149 0.150000
v 1.500000 1.611149 0.150000
v -1.500000 2.611149 0.150000
v 1.500000 2.611149 0.150000
v -1.500000 2.611149 -0.150000
v 1.500000 2.611149 -0.150000
v -1.500000 1.611149 -0.150000
v 1.500000 1.611149 -0.150000
vt 0.872707 0.035214
vt 0.934699 0.731278
vt 0.763799 0.144974
vt 0.762683 0.144974
vt 0.934765 0.946694
vt 0.873559 0.254733
vt 0.763799 0.255116
vt 0.457586 0.731575
vt 0.763799 0.364875
vt 0.873559 0.364875
vt 0.872443 0.035214
vt 0.872443 0.144974
vt 0.762947 0.035214
vt 0.762947 0.144974
vt 0.457717 0.946984
vt 0.873559 0.255116
vt 0.763799 0.254733
vt 0.934634 0.731285
vt 0.762683 0.035214
vt 0.934699 0.946688
vt 0.873559 0.144974
vt 0.457651 0.731278
vt 0.457651 0.946688
vt 0.872707 0.144974
vn 0.000000 0.000000 1.000000
vn 0.000000 0.000000 1.000000
vn 0.000000 0.000000 1.000000
vn 0.000000 0.000000 1.000000
vn 0.000000 1.000000 0.000000
vn 0.000000 1.000000 0.000000
vn 0.000000 1.000000 0.000000
vn 0.000000 1.000000 0.000000
vn 0.000000 0.000000 -1.000000
vn 0.000000 0.000000 -1.000000
vn 0.000000 0.000000 -1.000000
vn 0.000000 0.000000 -1.000000
vn 0.000000 -1.000000 0.000000
vn 0.000000 -1.000000 0.000000
vn 0.000000 -1.000000 0.000000
vn 0.000000 -1.000000 0.000000
vn 1.000000 0.000000 0.000000
vn 1.000000 0.000000 0.000000
vn 1.000000 0.000000 0.000000
vn 1.000000 0.000000 0.000000
vn -1.000000 0.000000 0.000000
vn -1.000000 0.000000 0.000000
vn -1.000000 0.000000 0.000000
vn -1.000000 0.000000 0.000000
s off
g pCube2
usemtl initialShadingGroup
f 9/36/25 10/16/26 12/34/27 11/37/28
f 11/17/29 12/35/30 14/20/31 13/31/32
f 13/19/33 14/29/34 16/22/35 15/32/36
f 15/21/37 16/30/38 10/24/39 9/23/40
f 10/33/41 16/25/42 14/26/43 12/18/44
f 15/27/45 9/15/46 11/38/47 13/28/48
g default
v 0.095106 2.598785 -0.030902
v 0.080902 2.598785 -0.058779
v 0.058779 2.598785 -0.080902
v 0.030902 2.598785 -0.095106
v 0.000000 2.598785 -0.100000
v -0.030902 2.598785 -0.095106
v -0.058779 2.598785 -0.080902
v -0.080902 2.598785 -0.058779
v -0.095106 2.598785 -0.030902
v -0.100000 2.598785 0.000000
v -0.095106 2.598785 0.030902
v -0.080902 2.598785 0.058779
v -0.058779 2.598785 0.080902
v -0.030902 2.598785 0.095106
v -0.000000 2.598785 0.100000
v 0.030902 2.598785 0.095106
v 0.058779 2.598785 0.080902
v 0.080902 2.598785 0.058779
v 0.095106 2.598785 0.030902
v 0.100000 2.598785 0.000000
v 0.095106 3.298785 -0.030902
v 0.080902 3.298785 -0.058779
v 0.058779 3.298785 -0.080902
v 0.030902 3.298785 -0.095106
v 0.000000 3.298785 -0.100000
v -0.030902 3.298785 -0.095106
v -0.058779 3.298785 -0.080902
v -0.080902 3.298785 -0.058779
v -0.095106 3.298785 -0.030902
v -0.100000 3.298785 0.000000
v -0.095106 3.298785 0.030902
v -0.080902 3.298785 0.058779
v -0.058779 3.298785 0.080902
v -0.030902 3.298785 0.095106
v -0.000000 3.298785 0.100000
v 0.030902 3.298785 0.095106
v 0.058779 3.298785 0.080902
v 0.080902 3.298785 0.058779
v 0.095106 3.298785 0.030902
v 0.100000 3.298785 0.000000
vt 0.057241 0.026309
vt 0.068599 0.026309
vt 0.079958 0.026309
vt 0.091316 0.026309
vt 0.102675 0.026309
vt 0.114033 0.026309
vt 0.125391 0.026309
vt 0.136750 0.026309
vt 0.148108 0.026309
vt 0.159467 0.026309
vt 0.170825 0.026309
vt 0.182184 0.026309
vt 0.193542 0.026309
vt 0.204900 0.026309
vt 0.216259 0.026309
vt 0.227617 0.026309
vt 0.238976 0.026309
vt 0.250334 0.026309
vt 0.261693 0.026309
vt 0.273051 0.026309
vt 0.284410 0.026309
vt 0.057241 0.367917
vt 0.068599 0.367917
vt 0.079958 0.367917
vt 0.091316 0.367917
vt 0.102675 0.367917
vt 0.114033 0.367917
vt 0.125391 0.367917
vt 0.136750 0.367917
vt 0.148108 0.367917
vt 0.159467 0.367917
vt 0.170825 0.367917
vt 0.182184 0.367917
vt 0.193542 0.367917
vt 0.204900 0.367917
vt 0.216259 0.367917
vt 0.227617 0.367917
vt 0.238976 0.367917
vt 0.250334 0.367917
vt 0.261693 0.367917
vt 0.273051 0.367917
vt 0.284410 0.367917
vn 0.951057 0.000000 -0.309016
vn 0.809017 0.000000 -0.587785
vn 0.809017 0.000000 -0.587785
vn 0.951057 0.000000 -0.309016
vn 0.587785 0.000000 -0.809017
vn 0.587785 0.000000 -0.809017
vn 0.309017 0.000000 -0.951057
vn 0.309017 0.000000 -0.951057
vn 0.000000 0.000000 -1.000000
vn 0.000000 0.000000 -1.000000
vn -0.309017 0.000000 -0.951057
vn -0.309017 0.000000 -0.951057
vn -0.587786 0.000000 -0.809017
vn -0.587786 0.000000 -0.809017
vn -0.809017 0.000000 -0.587785
vn -0.809017 0.000000 -0.587785
vn -0.951057 0.000000 -0.309017
vn -0.951057 0.000000 -0.309017
vn -1.000000 0.000000 0.000000
vn -1.000000 0.000000 0.000000
vn -0.951057 0.000000 0.309017
vn -0.951057 0.000000 0.309017
vn -0.809017 0.000000 0.587785
vn -0.809017 0.000000 0.587785
vn -0.587785 0.000000 0.809017
vn -0.587785 0.000000 0.809017
vn -0.309017 0.000000 0.951057
vn -0.309017 0.000000 0.951057
vn 0.000000 0.000000 1.000000
vn 0.000000 0.000000 1.000000
vn 0.309017 0.000000 0.951057
vn 0.309017 0.000000 0.951057
vn 0.587785 0.000000 0.809017
vn 0.587785 0.000000 0.809017
vn 0.809017 0.000000 0.587785
vn 0.809017 0.000000 0.587785
vn 0.951057 0.000000 0.309017
vn 0.951057 0.000000 0.309017
vn 1.000000 0.000000 0.000001
vn 1.000000 0.000000 0.000001
s 1
g pCylinder1
usemtl initialShadingGroup
f 17/39/49 18/40/50 38/61/51 37/60/52
f 18/40/50 19/41/53 39/62/54 38/61/51
f 19/41/53 20/42/55 40/63/56 39/62/54
f 20/42/55 21/43/57 41/64/58 40/63/56
f 21/43/57 22/44/59 42/65/60 41/64/58
f 22/44/59 23/45/61 43/66/62 42/65/60
f 23/45/61 24/46/63 44/67/64 43/66/62
f 24/46/63 25/47/65 45/68/66 44/67/64
f 25/47/65 26/48/67 46/69/68 45/68/66
f 26/48/67 27/49/69 47/70/70 46/69/68
f 27/49/69 28/50/71 48/71/72 47/70/70
f 28/50/71 29/51/73 49/72/74 48/71/72
f 29/51/73 30/52/75 50/73/76 49/72/74
f 30/52/75 31/53/77 51/74/78 50/73/76
f 31/53/77 32/54/79 52/75/80 51/74/78
f 32/54/79 33/55/81 53/76/82 52/75/80
f 33/55/81 34/56/83 54/77/84 53/76/82
f 34/56/83 35/57/85 55/78/86 54/77/84
f 35/57/85 36/58/87 56/79/88 55/78/86
f 36/58/87 17/59/49 37/80/52 56/79/88
g default
v 0.095106 3.297685 -0.030902
v 0.080902 3.297685 -0.058779
v 0.058779 3.297685 -0.080902
v 0.030902 3.297685 -0.095106
v 0.000000 3.297685 -0.100000
v -0.030902 3.297685 -0.095106
v -0.058779 3.297685 -0.080902
v -0.080902 3.297685 -0.058779
v -0.095106 3.297685 -0.030902
v -0.100000 3.297685 0.000000
v -0.095106 3.297685 0.030902
v -0.080902 3.297685 0.058779
v -0.058779 3.297685 0.080902
v -0.030902 3.297685 0.095106
v -0.000000 3.297685 0.100000
v 0.030902 3.297685 0.095106
v 0.058779 3.297685 0.080902
v 0.080902 3.297685 0.058779
v 0.095106 3.297685 0.030902
v 0.100000 3.297685 0.000000
v 0.000000 3.597685 0.000000
vt 0.316210 0.024040
vt 0.334589 0.024040
vt 0.352968 0.024040
vt 0.371347 0.024040
vt 0.389726 0.024040
vt 0.408105 0.024040
vt 0.426484 0.024040
vt 0.444863 0.024040
vt 0.463242 0.024040
vt 0.481621 0.024040
vt 0.500000 0.024040
vt 0.518379 0.024040
vt 0.536758 0.024040
vt 0.555137 0.024040
vt 0.573516 0.024040
vt 0.591895 0.024040
vt 0.610274 0.024040
vt 0.628653 0.024040
vt 0.647032 0.024040
vt 0.665411 0.024040
vt 0.683790 0.024040
vt 0.500000 0.391620
vn 0.902252 0.316228 -0.293158
vn 0.767501 0.316228 -0.557622
vn 0.000001 1.000000 0.000003
vn 0.557622 0.316228 -0.767501
vn 0.293159 0.316228 -0.902252
vn 0.000000 0.316228 -0.948683
vn -0.293159 0.316228 -0.902251
vn -0.557622 0.316228 -0.767501
vn -0.767501 0.316228 -0.557622
vn -0.902251 0.316228 -0.293159
vn -0.948683 0.316228 0.000000
vn -0.902251 0.316228 0.293159
vn -0.767501 0.316228 0.557622
vn -0.557622 0.316228 0.767501
vn -0.293159 0.316228 0.902251
vn 0.000000 0.316228 0.948683
vn 0.293159 0.316228 0.902251
vn 0.557622 0.316228 0.767501
vn 0.767501 0.316228 0.557622
vn 0.902251 0.316228 0.293159
vn 0.948683 0.316228 0.000001
s 1
g pCone1
usemtl initialShadingGroup
f 57/81/89 58/82/90 77/102/91
f 58/82/90 59/83/92 77/102/91
f 59/83/92 60/84/93 77/102/91
f 60/84/93 61/85/94 77/102/91
f 61/85/94 62/86/95 77/102/91
f 62/86/95 63/87/96 77/102/91
f 63/87/96 64/88/97 77/102/91
f 64/88/97 65/89/98 77/102/91
f 65/89/98 66/90/99 77/102/91
f 66/90/99 67/91/100 77/102/91
f 67/91/100 68/92/101 77/102/91
f 68/92/101 69/93/102 77/102/91
f 69/93/102 70/94/103 77/102/91
f 70/94/103 71/95/104 77/102/91
f 71/95/104 72/96/105 77/102/91
f 72/96/105 73/97/106 77/102/91
f 73/97/106 74/98/107 77/102/91
f 74/98/107 75/99/108 77/102/91
f 75/99/108 76/100/109 77/102/91
f 76/100/109 57/101/89 77/102/91
