# This file uses centimeters as units for non-parametric coordinates.

mtllib NPC scene chocolates.mtl
g default
v -32.257519 2.749012 -64.227554
v -32.257519 2.749012 -64.565253
v -32.257519 2.855001 -64.227554
v -32.257519 2.855001 -64.565253
v -32.302793 2.960991 -64.272829
v -32.302793 2.960991 -64.519979
v -32.549943 2.960991 -64.272829
v -32.549943 2.960991 -64.519979
v -32.595218 2.855001 -64.227554
v -32.595218 2.855001 -64.565253
v -32.595218 2.749012 -64.227554
v -32.595218 2.749012 -64.565253
v -31.916219 2.749012 -64.227554
v -31.916219 2.749012 -64.565253
v -31.916219 2.855001 -64.227554
v -31.916219 2.855001 -64.565253
v -31.961493 2.960991 -64.272829
v -31.961493 2.960991 -64.519979
v -32.208643 2.960991 -64.272829
v -32.208643 2.960991 -64.519979
v -32.253918 2.855001 -64.227554
v -32.253918 2.855001 -64.565253
v -32.253918 2.749012 -64.227554
v -32.253918 2.749012 -64.565253
v -31.916219 2.749012 -63.889898
v -31.916219 2.749012 -64.227597
v -31.916219 2.855001 -63.889898
v -31.916219 2.855001 -64.227597
v -31.961493 2.960991 -63.935173
v -31.961493 2.960991 -64.182322
v -32.208643 2.960991 -63.935173
v -32.208643 2.960991 -64.182322
v -32.253918 2.855001 -63.889898
v -32.253918 2.855001 -64.227597
v -32.253918 2.749012 -63.889898
v -32.253918 2.749012 -64.227597
v -32.257519 2.749012 -63.889898
v -32.257519 2.749012 -64.227597
v -32.257519 2.855001 -63.889898
v -32.257519 2.855001 -64.227597
v -32.302793 2.960991 -63.935173
v -32.302793 2.960991 -64.182322
v -32.549943 2.960991 -63.935173
v -32.549943 2.960991 -64.182322
v -32.595218 2.855001 -63.889898
v -32.595218 2.855001 -64.227597
v -32.595218 2.749012 -63.889898
v -32.595218 2.749012 -64.227597
v -32.257519 2.749012 -63.210498
v -32.257519 2.749012 -63.548198
v -32.257519 2.855001 -63.210498
v -32.257519 2.855001 -63.548198
v -32.302793 2.960991 -63.255773
v -32.302793 2.960991 -63.502923
v -32.549943 2.960991 -63.255773
v -32.549943 2.960991 -63.502923
v -32.595218 2.855001 -63.210498
v -32.595218 2.855001 -63.548198
v -32.595218 2.749012 -63.210498
v -32.595218 2.749012 -63.548198
v -31.916219 2.749012 -63.210498
v -31.916219 2.749012 -63.548198
v -31.916219 2.855001 -63.210498
v -31.916219 2.855001 -63.548198
v -31.961493 2.960991 -63.255773
v -31.961493 2.960991 -63.502923
v -32.208643 2.960991 -63.255773
v -32.208643 2.960991 -63.502923
v -32.253918 2.855001 -63.210498
v -32.253918 2.855001 -63.548198
v -32.253918 2.749012 -63.210498
v -32.253918 2.749012 -63.548198
v -31.916219 2.749012 -63.548155
v -31.916219 2.749012 -63.885854
v -31.916219 2.855001 -63.548155
v -31.916219 2.855001 -63.885854
v -31.961493 2.960991 -63.593430
v -31.961493 2.960991 -63.840579
v -32.208643 2.960991 -63.593430
v -32.208643 2.960991 -63.840579
v -32.253918 2.855001 -63.548155
v -32.253918 2.855001 -63.885854
v -32.253918 2.749012 -63.548155
v -32.253918 2.749012 -63.885854
v -32.257519 2.749012 -63.548155
v -32.257519 2.749012 -63.885854
v -32.257519 2.855001 -63.548155
v -32.257519 2.855001 -63.885854
v -32.302793 2.960991 -63.593430
v -32.302793 2.960991 -63.840579
v -32.549943 2.960991 -63.593430
v -32.549943 2.960991 -63.840579
v -32.595218 2.855001 -63.548155
v -32.595218 2.855001 -63.885854
v -32.595218 2.749012 -63.548155
v -32.595218 2.749012 -63.885854
vt 0.179307 0.590834
vt 0.179307 0.576427
vt 0.183906 0.576427
vt 0.183906 0.590834
vt 0.188505 0.578359
vt 0.188505 0.588903
vt 0.189425 0.590834
vt 0.189425 0.576427
vt 0.194024 0.576427
vt 0.194024 0.590834
vt 0.198623 0.578359
vt 0.198623 0.588903
vt 0.217182 0.605561
vt 0.217182 0.591154
vt 0.221781 0.591154
vt 0.221781 0.605561
vt 0.226380 0.593086
vt 0.226380 0.603630
vt 0.207167 0.605561
vt 0.207167 0.591154
vt 0.211766 0.591154
vt 0.211766 0.605561
vt 0.216365 0.593086
vt 0.216365 0.603630
vt 0.136765 0.605561
vt 0.136765 0.591154
vt 0.141365 0.591154
vt 0.141365 0.605561
vt 0.145964 0.593086
vt 0.145964 0.603630
vt 0.126750 0.605561
vt 0.126750 0.591154
vt 0.131349 0.591154
vt 0.131349 0.605561
vt 0.135949 0.593086
vt 0.135949 0.603630
vt 0.173859 0.620288
vt 0.173859 0.605880
vt 0.178458 0.605880
vt 0.178458 0.620288
vt 0.183057 0.607812
vt 0.183057 0.618356
vt 0.183977 0.620288
vt 0.183977 0.605880
vt 0.188576 0.605880
vt 0.188576 0.620288
vt 0.193175 0.607812
vt 0.193175 0.618356
vt 0.217182 0.635014
vt 0.217182 0.620607
vt 0.221781 0.620607
vt 0.221781 0.635014
vt 0.226380 0.622539
vt 0.226380 0.633083
vt 0.207167 0.635014
vt 0.207167 0.620607
vt 0.211766 0.620607
vt 0.211766 0.635014
vt 0.216365 0.622539
vt 0.216365 0.633083
vt 0.136765 0.635014
vt 0.136765 0.620607
vt 0.141365 0.620607
vt 0.141365 0.635014
vt 0.145964 0.622539
vt 0.145964 0.633083
vt 0.126750 0.635014
vt 0.126750 0.620607
vt 0.131349 0.620607
vt 0.131349 0.635014
vt 0.135949 0.622539
vt 0.135949 0.633083
vt 0.173859 0.649741
vt 0.173859 0.635334
vt 0.178458 0.635334
vt 0.178458 0.649741
vt 0.183057 0.637265
vt 0.183057 0.647809
vt 0.183977 0.649741
vt 0.183977 0.635334
vt 0.188576 0.635334
vt 0.188576 0.649741
vt 0.193175 0.637265
vt 0.193175 0.647809
vt 0.217182 0.664467
vt 0.217182 0.650060
vt 0.221781 0.650060
vt 0.221781 0.664467
vt 0.226380 0.651992
vt 0.226380 0.662536
vt 0.207167 0.664467
vt 0.207167 0.650060
vt 0.211766 0.650060
vt 0.211766 0.664467
vt 0.216365 0.651992
vt 0.216365 0.662536
vt 0.127260 0.578359
vt 0.144795 0.578359
vt 0.144795 0.588903
vt 0.127260 0.588903
vt 0.124047 0.576427
vt 0.148008 0.576427
vt 0.148008 0.590834
vt 0.124047 0.590834
vt 0.154401 0.576427
vt 0.178361 0.576427
vt 0.178361 0.590834
vt 0.154401 0.590834
vt 0.208203 0.588903
vt 0.208203 0.578359
vt 0.225739 0.578359
vt 0.225739 0.588903
vt 0.204991 0.590834
vt 0.204991 0.576427
vt 0.228951 0.576427
vt 0.228951 0.590834
vt 0.227197 0.605561
vt 0.227197 0.591154
vt 0.251158 0.591154
vt 0.251158 0.605561
vt 0.180186 0.603630
vt 0.180186 0.593086
vt 0.197722 0.593086
vt 0.197722 0.603630
vt 0.176974 0.605561
vt 0.176974 0.591154
vt 0.200934 0.591154
vt 0.200934 0.605561
vt 0.146781 0.605561
vt 0.146781 0.591154
vt 0.170741 0.591154
vt 0.170741 0.605561
vt 0.121786 0.607812
vt 0.139321 0.607812
vt 0.139321 0.618356
vt 0.121786 0.618356
vt 0.118573 0.605880
vt 0.142534 0.605880
vt 0.142534 0.620288
vt 0.118573 0.620288
vt 0.148953 0.605880
vt 0.172913 0.605880
vt 0.172913 0.620288
vt 0.148953 0.620288
vt 0.202755 0.618356
vt 0.202755 0.607812
vt 0.220291 0.607812
vt 0.220291 0.618356
vt 0.199543 0.620288
vt 0.199543 0.605880
vt 0.223503 0.605880
vt 0.223503 0.620288
vt 0.227197 0.635014
vt 0.227197 0.620607
vt 0.251158 0.620607
vt 0.251158 0.635014
vt 0.180186 0.633083
vt 0.180186 0.622539
vt 0.197722 0.622539
vt 0.197722 0.633083
vt 0.176974 0.635014
vt 0.176974 0.620607
vt 0.200934 0.620607
vt 0.200934 0.635014
vt 0.146781 0.635014
vt 0.146781 0.620607
vt 0.170741 0.620607
vt 0.170741 0.635014
vt 0.121786 0.647809
vt 0.121786 0.637265
vt 0.139321 0.637265
vt 0.139321 0.647809
vt 0.118573 0.649741
vt 0.118573 0.635334
vt 0.142534 0.635334
vt 0.142534 0.649741
vt 0.148953 0.649741
vt 0.148953 0.635334
vt 0.172913 0.635334
vt 0.172913 0.649741
vt 0.202755 0.637265
vt 0.220291 0.637265
vt 0.220291 0.647809
vt 0.202755 0.647809
vt 0.199543 0.635334
vt 0.223503 0.635334
vt 0.223503 0.649741
vt 0.199543 0.649741
vt 0.227197 0.650060
vt 0.251158 0.650060
vt 0.251158 0.664467
vt 0.227197 0.664467
vt 0.118573 0.590834
vt 0.118573 0.576427
vt 0.123172 0.576427
vt 0.123172 0.590834
vt 0.148953 0.590834
vt 0.148953 0.576427
vt 0.153552 0.576427
vt 0.153552 0.590834
vt 0.199543 0.590834
vt 0.199543 0.576427
vt 0.204142 0.576427
vt 0.204142 0.590834
vt 0.229896 0.590834
vt 0.229896 0.576427
vt 0.234496 0.576427
vt 0.234496 0.590834
vt 0.201751 0.605561
vt 0.201751 0.591154
vt 0.206350 0.591154
vt 0.206350 0.605561
vt 0.171558 0.605561
vt 0.171558 0.591154
vt 0.176157 0.591154
vt 0.176157 0.605561
vt 0.121334 0.605561
vt 0.121334 0.591154
vt 0.125933 0.591154
vt 0.125933 0.605561
vt 0.143505 0.620288
vt 0.143505 0.605880
vt 0.148104 0.605880
vt 0.148104 0.620288
vt 0.194094 0.620288
vt 0.194094 0.605880
vt 0.198694 0.605880
vt 0.198694 0.620288
vt 0.224448 0.620288
vt 0.224448 0.605880
vt 0.229047 0.605880
vt 0.229047 0.620288
vt 0.201751 0.635014
vt 0.201751 0.620607
vt 0.206350 0.620607
vt 0.206350 0.635014
vt 0.171558 0.635014
vt 0.171558 0.620607
vt 0.176157 0.620607
vt 0.176157 0.635014
vt 0.121334 0.635014
vt 0.121334 0.620607
vt 0.125933 0.620607
vt 0.125933 0.635014
vt 0.143505 0.649741
vt 0.143505 0.635334
vt 0.148104 0.635334
vt 0.148104 0.649741
vt 0.194094 0.649741
vt 0.194094 0.635334
vt 0.198694 0.635334
vt 0.198694 0.649741
vt 0.224448 0.649741
vt 0.224448 0.635334
vt 0.229047 0.635334
vt 0.229047 0.649741
vn 1.000000 0.000000 0.000000
vn 1.000000 0.000000 0.000000
vn 0.987947 0.154790 0.000000
vn 0.987947 0.154790 0.000000
vn 0.919613 0.392825 0.000000
vn 0.919613 0.392825 0.000000
vn 0.000000 1.000000 0.000000
vn 0.000000 1.000000 0.000000
vn 0.000000 1.000000 0.000000
vn 0.000000 1.000000 0.000000
vn -0.919613 0.392825 -0.000000
vn -0.919613 0.392825 -0.000000
vn -0.987947 0.154790 -0.000000
vn -0.987947 0.154790 -0.000000
vn -1.000000 0.000000 -0.000000
vn -1.000000 0.000000 -0.000000
vn 0.000000 -1.000000 0.000000
vn 0.000000 -1.000000 0.000000
vn 0.000000 -1.000000 0.000000
vn 0.000000 -1.000000 0.000000
vn 0.000000 0.000000 -1.000000
vn 0.000000 0.000000 -1.000000
vn 0.000000 0.154790 -0.987947
vn 0.000000 0.154790 -0.987947
vn 0.000000 0.392825 -0.919613
vn 0.000000 0.392825 -0.919613
vn -0.000000 0.000000 1.000000
vn -0.000000 0.000000 1.000000
vn -0.000000 0.154791 0.987947
vn -0.000000 0.154791 0.987947
vn -0.000000 0.392825 0.919613
vn -0.000000 0.392825 0.919613
vn 1.000000 0.000000 0.000000
vn 1.000000 0.000000 0.000000
vn 0.987947 0.154790 0.000000
vn 0.987947 0.154790 0.000000
vn 0.919613 0.392825 0.000000
vn 0.919613 0.392825 0.000000
vn 0.000000 1.000000 0.000000
vn 0.000000 1.000000 0.000000
vn 0.000000 1.000000 0.000000
vn 0.000000 1.000000 0.000000
vn -0.919613 0.392825 -0.000000
vn -0.919613 0.392825 -0.000000
vn -0.987947 0.154790 -0.000000
vn -0.987947 0.154790 -0.000000
vn -1.000000 0.000000 -0.000000
vn -1.000000 0.000000 -0.000000
vn 0.000000 -1.000000 0.000000
vn 0.000000 -1.000000 0.000000
vn 0.000000 -1.000000 0.000000
vn 0.000000 -1.000000 0.000000
vn 0.000000 0.000000 -1.000000
vn 0.000000 0.000000 -1.000000
vn 0.000000 0.154790 -0.987947
vn 0.000000 0.154790 -0.987947
vn 0.000000 0.392824 -0.919613
vn 0.000000 0.392824 -0.919613
vn -0.000000 0.000000 1.000000
vn -0.000000 0.000000 1.000000
vn -0.000000 0.154790 0.987947
vn -0.000000 0.154790 0.987947
vn -0.000000 0.392825 0.919613
vn -0.000000 0.392825 0.919613
vn 1.000000 0.000000 0.000000
vn 1.000000 0.000000 0.000000
vn 0.987947 0.154790 0.000000
vn 0.987947 0.154790 0.000000
vn 0.919613 0.392825 0.000000
vn 0.919613 0.392825 0.000000
vn 0.000000 1.000000 0.000000
vn 0.000000 1.000000 0.000000
vn 0.000000 1.000000 0.000000
vn 0.000000 1.000000 0.000000
vn -0.919613 0.392825 -0.000000
vn -0.919613 0.392825 -0.000000
vn -0.987947 0.154790 -0.000000
vn -0.987947 0.154790 -0.000000
vn -1.000000 0.000000 -0.000000
vn -1.000000 0.000000 -0.000000
vn 0.000000 -1.000000 0.000000
vn 0.000000 -1.000000 0.000000
vn 0.000000 -1.000000 0.000000
vn 0.000000 -1.000000 0.000000
vn 0.000000 0.000000 -1.000000
vn 0.000000 0.000000 -1.000000
vn 0.000000 0.154790 -0.987947
vn 0.000000 0.154790 -0.987947
vn 0.000000 0.392825 -0.919613
vn 0.000000 0.392825 -0.919613
vn -0.000000 0.000000 1.000000
vn -0.000000 0.000000 1.000000
vn -0.000000 0.154790 0.987947
vn -0.000000 0.154790 0.987947
vn -0.000000 0.392825 0.919613
vn -0.000000 0.392825 0.919613
vn 1.000000 0.000000 0.000000
vn 1.000000 0.000000 0.000000
vn 0.987947 0.154790 0.000000
vn 0.987947 0.154790 0.000000
vn 0.919613 0.392825 0.000000
vn 0.919613 0.392825 0.000000
vn 0.000000 1.000000 0.000000
vn 0.000000 1.000000 0.000000
vn 0.000000 1.000000 0.000000
vn 0.000000 1.000000 0.000000
vn -0.919613 0.392825 -0.000000
vn -0.919613 0.392825 -0.000000
vn -0.987947 0.154790 -0.000000
vn -0.987947 0.154790 -0.000000
vn -1.000000 0.000000 -0.000000
vn -1.000000 0.000000 -0.000000
vn 0.000000 -1.000000 0.000000
vn 0.000000 -1.000000 0.000000
vn 0.000000 -1.000000 0.000000
vn 0.000000 -1.000000 0.000000
vn 0.000000 0.000000 -1.000000
vn 0.000000 0.000000 -1.000000
vn 0.000000 0.154790 -0.987947
vn 0.000000 0.154790 -0.987947
vn 0.000000 0.392825 -0.919613
vn 0.000000 0.392825 -0.919613
vn -0.000000 0.000000 1.000000
vn -0.000000 0.000000 1.000000
vn -0.000000 0.154790 0.987947
vn -0.000000 0.154790 0.987947
vn -0.000000 0.392825 0.919613
vn -0.000000 0.392825 0.919613
vn 1.000000 0.000000 0.000000
vn 1.000000 0.000000 0.000000
vn 0.987947 0.154790 0.000000
vn 0.987947 0.154790 0.000000
vn 0.919613 0.392825 0.000000
vn 0.919613 0.392825 0.000000
vn 0.000000 1.000000 0.000000
vn 0.000000 1.000000 0.000000
vn 0.000000 1.000000 0.000000
vn 0.000000 1.000000 0.000000
vn -0.919613 0.392825 -0.000000
vn -0.919613 0.392825 -0.000000
vn -0.987947 0.154790 -0.000000
vn -0.987947 0.154790 -0.000000
vn -1.000000 0.000000 -0.000000
vn -1.000000 0.000000 -0.000000
vn 0.000000 -1.000000 0.000000
vn 0.000000 -1.000000 0.000000
vn 0.000000 -1.000000 0.000000
vn 0.000000 -1.000000 0.000000
vn 0.000000 0.000000 -1.000000
vn 0.000000 0.000000 -1.000000
vn 0.000000 0.154790 -0.987947
vn 0.000000 0.154790 -0.987947
vn 0.000000 0.392825 -0.919613
vn 0.000000 0.392825 -0.919613
vn -0.000000 0.000000 1.000000
vn -0.000000 0.000000 1.000000
vn -0.000000 0.154790 0.987947
vn -0.000000 0.154790 0.987947
vn -0.000000 0.392825 0.919613
vn -0.000000 0.392825 0.919613
vn 1.000000 0.000000 0.000000
vn 1.000000 0.000000 0.000000
vn 0.987947 0.154790 0.000000
vn 0.987947 0.154790 0.000000
vn 0.919613 0.392825 0.000000
vn 0.919613 0.392825 0.000000
vn 0.000000 1.000000 0.000000
vn 0.000000 1.000000 0.000000
vn 0.000000 1.000000 0.000000
vn 0.000000 1.000000 0.000000
vn -0.919613 0.392825 -0.000000
vn -0.919613 0.392825 -0.000000
vn -0.987947 0.154790 -0.000000
vn -0.987947 0.154790 -0.000000
vn -1.000000 0.000000 -0.000000
vn -1.000000 0.000000 -0.000000
vn 0.000000 -1.000000 0.000000
vn 0.000000 -1.000000 0.000000
vn 0.000000 -1.000000 0.000000
vn 0.000000 -1.000000 0.000000
vn 0.000000 0.000000 -1.000000
vn 0.000000 0.000000 -1.000000
vn 0.000000 0.154791 -0.987947
vn 0.000000 0.154791 -0.987947
vn 0.000000 0.392825 -0.919613
vn 0.000000 0.392825 -0.919613
vn -0.000000 0.000000 1.000000
vn -0.000000 0.000000 1.000000
vn -0.000000 0.154791 0.987947
vn -0.000000 0.154790 0.987947
vn -0.000000 0.392825 0.919613
vn -0.000000 0.392825 0.919613
vn 1.000000 0.000000 0.000000
vn 1.000000 0.000000 0.000000
vn 0.987947 0.154790 0.000000
vn 0.987947 0.154790 0.000000
vn 0.919613 0.392825 0.000000
vn 0.919613 0.392825 0.000000
vn 0.000000 1.000000 0.000000
vn 0.000000 1.000000 0.000000
vn 0.000000 1.000000 0.000000
vn 0.000000 1.000000 0.000000
vn -0.919613 0.392825 -0.000000
vn -0.919613 0.392825 -0.000000
vn -0.987947 0.154790 -0.000000
vn -0.987947 0.154790 -0.000000
vn -1.000000 0.000000 -0.000000
vn -1.000000 0.000000 -0.000000
vn 0.000000 -1.000000 0.000000
vn 0.000000 -1.000000 0.000000
vn 0.000000 -1.000000 0.000000
vn 0.000000 -1.000000 0.000000
vn 0.000000 0.000000 -1.000000
vn 0.000000 0.000000 -1.000000
vn 0.000000 0.154790 -0.987947
vn 0.000000 0.154791 -0.987947
vn 0.000000 0.392825 -0.919613
vn 0.000000 0.392825 -0.919613
vn -0.000000 0.000000 1.000000
vn -0.000000 0.000000 1.000000
vn -0.000000 0.154791 0.987947
vn -0.000000 0.154790 0.987947
vn -0.000000 0.392825 0.919613
vn -0.000000 0.392825 0.919613
vn 1.000000 0.000000 0.000000
vn 1.000000 0.000000 0.000000
vn 0.987947 0.154790 0.000000
vn 0.987947 0.154790 0.000000
vn 0.919613 0.392825 0.000000
vn 0.919613 0.392825 0.000000
vn 0.000000 1.000000 0.000000
vn 0.000000 1.000000 0.000000
vn 0.000000 1.000000 0.000000
vn 0.000000 1.000000 0.000000
vn -0.919613 0.392825 -0.000000
vn -0.919613 0.392825 -0.000000
vn -0.987947 0.154790 -0.000000
vn -0.987947 0.154790 -0.000000
vn -1.000000 0.000000 -0.000000
vn -1.000000 0.000000 -0.000000
vn 0.000000 -1.000000 0.000000
vn 0.000000 -1.000000 0.000000
vn 0.000000 -1.000000 0.000000
vn 0.000000 -1.000000 0.000000
vn 0.000000 0.000000 -1.000000
vn 0.000000 0.000000 -1.000000
vn 0.000000 0.154791 -0.987947
vn 0.000000 0.154791 -0.987947
vn 0.000000 0.392825 -0.919613
vn 0.000000 0.392825 -0.919613
vn -0.000000 0.000000 1.000000
vn -0.000000 0.000000 1.000000
vn -0.000000 0.154791 0.987947
vn -0.000000 0.154791 0.987947
vn -0.000000 0.392825 0.919613
vn -0.000000 0.392825 0.919613
s 1
g pCube9
usemtl lambert3SG
f 1/193/1 2/194/2 4/195/3 3/196/4
f 3/101/4 4/102/3 6/98/5 5/97/6
s off
f 5/97/7 6/98/8 8/99/9 7/100/10
s 2
f 7/100/11 8/99/12 10/103/13 9/104/14
f 9/197/14 10/198/13 12/199/15 11/200/16
s off
f 11/105/17 12/106/18 2/107/19 1/108/20
s 3
f 2/1/21 12/2/22 10/3/23 4/4/24
f 4/4/24 10/3/23 8/5/25 6/6/26
s 4
f 11/7/27 1/8/28 3/9/29 9/10/30
f 9/10/30 3/9/29 5/11/31 7/12/32
s 5
f 13/201/33 14/202/34 16/203/35 15/204/36
f 15/113/36 16/114/35 18/110/37 17/109/38
s off
f 17/109/39 18/110/40 20/111/41 19/112/42
s 6
f 19/112/43 20/111/44 22/115/45 21/116/46
f 21/205/46 22/206/45 24/207/47 23/208/48
s off
f 23/117/49 24/118/50 14/119/51 13/120/52
s 7
f 14/13/53 24/14/54 22/15/55 16/16/56
f 16/16/56 22/15/55 20/17/57 18/18/58
s 8
f 23/19/59 13/20/60 15/21/61 21/22/62
f 21/22/62 15/21/61 17/23/63 19/24/64
s 9
f 25/209/65 26/210/66 28/211/67 27/212/68
f 27/125/68 28/126/67 30/122/69 29/121/70
s off
f 29/121/71 30/122/72 32/123/73 31/124/74
s 10
f 31/124/75 32/123/76 34/127/77 33/128/78
f 33/213/78 34/214/77 36/215/79 35/216/80
s off
f 35/129/81 36/130/82 26/131/83 25/132/84
s 11
f 26/25/85 36/26/86 34/27/87 28/28/88
f 28/28/88 34/27/87 32/29/89 30/30/90
s 12
f 35/31/91 25/32/92 27/33/93 33/34/94
f 33/34/94 27/33/93 29/35/95 31/36/96
s 13
f 37/217/97 38/218/98 40/219/99 39/220/100
f 39/137/100 40/138/99 42/134/101 41/133/102
s off
f 41/133/103 42/134/104 44/135/105 43/136/106
s 14
f 43/136/107 44/135/108 46/139/109 45/140/110
f 45/221/110 46/222/109 48/223/111 47/224/112
s off
f 47/141/113 48/142/114 38/143/115 37/144/116
s 15
f 38/37/117 48/38/118 46/39/119 40/40/120
f 40/40/120 46/39/119 44/41/121 42/42/122
s 16
f 47/43/123 37/44/124 39/45/125 45/46/126
f 45/46/126 39/45/125 41/47/127 43/48/128
s 17
f 49/225/129 50/226/130 52/227/131 51/228/132
f 51/149/132 52/150/131 54/146/133 53/145/134
s off
f 53/145/135 54/146/136 56/147/137 55/148/138
s 18
f 55/148/139 56/147/140 58/151/141 57/152/142
f 57/229/142 58/230/141 60/231/143 59/232/144
s off
f 59/153/145 60/154/146 50/155/147 49/156/148
s 19
f 50/49/149 60/50/150 58/51/151 52/52/152
f 52/52/152 58/51/151 56/53/153 54/54/154
s 20
f 59/55/155 49/56/156 51/57/157 57/58/158
f 57/58/158 51/57/157 53/59/159 55/60/160
s 21
f 61/233/161 62/234/162 64/235/163 63/236/164
f 63/161/164 64/162/163 66/158/165 65/157/166
s off
f 65/157/167 66/158/168 68/159/169 67/160/170
s 22
f 67/160/171 68/159/172 70/163/173 69/164/174
f 69/237/174 70/238/173 72/239/175 71/240/176
s off
f 71/165/177 72/166/178 62/167/179 61/168/180
s 23
f 62/61/181 72/62/182 70/63/183 64/64/184
f 64/64/184 70/63/183 68/65/185 66/66/186
s 24
f 71/67/187 61/68/188 63/69/189 69/70/190
f 69/70/190 63/69/189 65/71/191 67/72/192
s 25
f 73/241/193 74/242/194 76/243/195 75/244/196
f 75/173/196 76/174/195 78/170/197 77/169/198
s off
f 77/169/199 78/170/200 80/171/201 79/172/202
s 26
f 79/172/203 80/171/204 82/175/205 81/176/206
f 81/245/206 82/246/205 84/247/207 83/248/208
s off
f 83/177/209 84/178/210 74/179/211 73/180/212
s 27
f 74/73/213 84/74/214 82/75/215 76/76/216
f 76/76/216 82/75/215 80/77/217 78/78/218
s 28
f 83/79/219 73/80/220 75/81/221 81/82/222
f 81/82/222 75/81/221 77/83/223 79/84/224
s 29
f 85/249/225 86/250/226 88/251/227 87/252/228
f 87/185/228 88/186/227 90/182/229 89/181/230
s off
f 89/181/231 90/182/232 92/183/233 91/184/234
s 30
f 91/184/235 92/183/236 94/187/237 93/188/238
f 93/253/238 94/254/237 96/255/239 95/256/240
s off
f 95/189/241 96/190/242 86/191/243 85/192/244
s 31
f 86/85/245 96/86/246 94/87/247 88/88/248
f 88/88/248 94/87/247 92/89/249 90/90/250
s 32
f 95/91/251 85/92/252 87/93/253 93/94/254
f 93/94/254 87/93/253 89/95/255 91/96/256
