# This file uses centimeters as units for non-parametric coordinates.

mtllib Propeller.mtl
g default
v 0.500000 -0.025000 0.100000
v 0.500000 -0.025000 -0.100000
v 0.500000 0.025000 0.100000
v 0.500000 0.025000 -0.100000
v -0.500000 0.025000 0.100000
v -0.500000 0.025000 -0.100000
v -0.500000 -0.025000 0.100000
v -0.500000 -0.025000 -0.100000
vt 0.417237 0.168950
vt 0.582763 0.168950
vt 0.417237 0.334475
vt 0.582763 0.334475
vt 0.417237 0.500000
vt 0.582763 0.500000
vt 0.417237 0.665525
vt 0.582763 0.665525
vt 0.417237 0.831050
vt 0.582763 0.831050
vt 0.748288 0.168950
vt 0.748288 0.334475
vt 0.251712 0.168950
vt 0.251712 0.334475
vn 1.000000 0.000000 0.000000
vn 1.000000 0.000000 0.000000
vn 1.000000 0.000000 0.000000
vn 1.000000 0.000000 0.000000
vn 0.000000 1.000000 0.000000
vn 0.000000 1.000000 0.000000
vn 0.000000 1.000000 0.000000
vn 0.000000 1.000000 0.000000
vn -1.000000 0.000000 -0.000000
vn -1.000000 0.000000 -0.000000
vn -1.000000 0.000000 -0.000000
vn -1.000000 0.000000 -0.000000
vn 0.000000 -1.000000 0.000000
vn 0.000000 -1.000000 0.000000
vn 0.000000 -1.000000 0.000000
vn 0.000000 -1.000000 0.000000
vn 0.000000 0.000000 -1.000000
vn 0.000000 0.000000 -1.000000
vn 0.000000 0.000000 -1.000000
vn 0.000000 0.000000 -1.000000
vn -0.000000 0.000000 1.000000
vn -0.000000 0.000000 1.000000
vn -0.000000 0.000000 1.000000
vn -0.000000 0.000000 1.000000
s off
g pCube5
usemtl initialShadingGroup
f 1/1/1 2/2/2 4/4/3 3/3/4
f 3/3/5 4/4/6 6/6/7 5/5/8
f 5/5/9 6/6/10 8/8/11 7/7/12
f 7/7/13 8/8/14 2/10/15 1/9/16
f 2/2/17 8/11/18 6/12/19 4/4/20
f 7/13/21 1/1/22 3/3/23 5/14/24
g default
v -0.100000 -0.025000 0.500000
v 0.100000 -0.025000 0.500000
v -0.100000 0.025000 0.500000
v 0.100000 0.025000 0.500000
v -0.100000 0.025000 -0.500000
v 0.100000 0.025000 -0.500000
v -0.100000 -0.025000 -0.500000
v 0.100000 -0.025000 -0.500000
vt 0.417237 0.168950
vt 0.582763 0.168950
vt 0.417237 0.334475
vt 0.582763 0.334475
vt 0.417237 0.500000
vt 0.582763 0.500000
vt 0.417237 0.665525
vt 0.582763 0.665525
vt 0.417237 0.831050
vt 0.582763 0.831050
vt 0.748288 0.168950
vt 0.748288 0.334475
vt 0.251712 0.168950
vt 0.251712 0.334475
vn 0.000000 0.000000 1.000000
vn 0.000000 0.000000 1.000000
vn 0.000000 0.000000 1.000000
vn 0.000000 0.000000 1.000000
vn 0.000000 1.000000 0.000000
vn 0.000000 1.000000 0.000000
vn 0.000000 1.000000 0.000000
vn 0.000000 1.000000 0.000000
vn 0.000000 0.000000 -1.000000
vn 0.000000 0.000000 -1.000000
vn 0.000000 0.000000 -1.000000
vn 0.000000 0.000000 -1.000000
vn 0.000000 -1.000000 0.000000
vn 0.000000 -1.000000 0.000000
vn 0.000000 -1.000000 0.000000
vn 0.000000 -1.000000 0.000000
vn 1.000000 0.000000 0.000000
vn 1.000000 0.000000 0.000000
vn 1.000000 0.000000 0.000000
vn 1.000000 0.000000 0.000000
vn -1.000000 0.000000 0.000000
vn -1.000000 0.000000 0.000000
vn -1.000000 0.000000 0.000000
vn -1.000000 0.000000 0.000000
s off
g pCube4
usemtl initialShadingGroup
f 9/15/25 10/16/26 12/18/27 11/17/28
f 11/17/29 12/18/30 14/20/31 13/19/32
f 13/19/33 14/20/34 16/22/35 15/21/36
f 15/21/37 16/22/38 10/24/39 9/23/40
f 10/16/41 16/25/42 14/26/43 12/18/44
f 15/27/45 9/15/46 11/17/47 13/28/48
