# This file uses centimeters as units for non-parametric coordinates.

mtllib PropellerCheckpoint.mtl
g default
v 0.712504 3.343804 0.212504
v 0.750000 3.381300 0.250000
v 0.750000 3.381300 -0.250000
v 0.712504 3.343804 -0.212504
v 0.750000 3.456307 0.250000
v 0.712504 3.493803 0.212504
v 0.712504 3.493803 -0.212504
v 0.750000 3.456307 -0.250000
v -0.712504 3.493803 0.212504
v -0.750000 3.456307 0.250000
v -0.712504 3.493803 -0.212504
v -0.750000 3.456307 -0.250000
v -0.750000 3.381300 0.250000
v -0.712504 3.343804 0.212504
v -0.712504 3.343804 -0.212504
v -0.750000 3.381300 -0.250000
vt 0.423603 0.880247
vt 0.409164 0.885060
vt 0.423603 0.114940
vt 0.587256 0.114940
vt 0.601694 0.885060
vt 0.587256 0.880247
vt 0.601694 0.644402
vt 0.409164 0.548128
vt 0.423603 0.495187
vt 0.587256 0.697343
vt 0.601694 0.163068
vt 0.409164 0.259342
vt 0.423603 0.312283
vt 0.587256 0.312283
vt 0.587256 0.495187
vt 0.601694 0.548128
vt 0.409164 0.644402
vt 0.423603 0.697343
vt 0.794224 0.163068
vt 0.794224 0.259342
vt 0.601694 0.259342
vt 0.216634 0.163068
vt 0.409164 0.163068
vt 0.216634 0.259342
vn -0.000000 -0.707108 0.707106
vn -0.000000 -0.707108 0.707106
vn -0.000000 -0.707108 0.707106
vn -0.000000 -0.707108 0.707106
vn 0.707106 -0.707107 0.000000
vn 0.707106 -0.707107 0.000000
vn 0.707106 -0.707107 0.000000
vn 0.707106 -0.707107 0.000000
vn 0.000000 -0.707108 -0.707106
vn 0.000000 -0.707108 -0.707106
vn 0.000000 -0.707108 -0.707106
vn 0.000000 -0.707108 -0.707106
vn -0.000000 0.707108 0.707106
vn -0.000000 0.707108 0.707106
vn -0.000000 0.707108 0.707106
vn -0.000000 0.707108 0.707106
vn 0.707106 0.707107 0.000000
vn 0.707106 0.707107 0.000000
vn 0.707106 0.707107 0.000000
vn 0.707106 0.707107 0.000000
vn 0.000000 0.707108 -0.707106
vn 0.000000 0.707108 -0.707106
vn 0.000000 0.707108 -0.707106
vn 0.000000 0.707108 -0.707106
vn -0.707106 0.707107 -0.000000
vn -0.707106 0.707107 -0.000000
vn -0.707106 0.707107 -0.000000
vn -0.707106 0.707107 -0.000000
vn -0.707106 -0.707107 -0.000000
vn -0.707106 -0.707107 -0.000000
vn -0.707106 -0.707107 -0.000000
vn -0.707106 -0.707107 -0.000000
vn 1.000000 0.000000 0.000000
vn 1.000000 0.000000 0.000000
vn 1.000000 0.000000 0.000000
vn 1.000000 0.000000 0.000000
vn 0.000000 1.000000 0.000000
vn 0.000000 1.000000 0.000000
vn 0.000000 1.000000 0.000000
vn 0.000000 1.000000 0.000000
vn -1.000000 0.000000 -0.000000
vn -1.000000 0.000000 -0.000000
vn -1.000000 0.000000 -0.000000
vn -1.000000 0.000000 -0.000000
vn 0.000000 -1.000000 0.000000
vn 0.000000 -1.000000 0.000000
vn 0.000000 -1.000000 0.000000
vn 0.000000 -1.000000 0.000000
vn 0.000000 0.000000 -1.000000
vn 0.000000 0.000000 -1.000000
vn 0.000000 0.000000 -1.000000
vn 0.000000 0.000000 -1.000000
vn -0.000000 0.000000 1.000000
vn -0.000000 0.000000 1.000000
vn -0.000000 0.000000 1.000000
vn -0.000000 0.000000 1.000000
s off
g pCube4
usemtl initialShadingGroup
f 1/1/1 2/2/2 13/17/3 14/18/4
f 2/23/5 1/3/6 4/4/7 3/11/8
f 3/5/9 4/6/10 15/10/11 16/7/12
f 5/12/13 6/13/14 9/9/15 10/8/16
f 6/13/17 5/12/18 8/21/19 7/14/20
f 7/14/21 8/21/22 12/16/23 11/15/24
f 10/8/25 9/9/26 11/15/27 12/16/28
f 14/18/29 13/17/30 16/7/31 15/10/32
f 2/23/33 3/11/34 8/21/35 5/12/36
f 6/13/37 7/14/38 11/15/39 9/9/40
f 10/8/41 12/16/42 16/7/43 13/17/44
f 14/18/45 15/10/46 4/6/47 1/1/48
f 3/11/49 16/19/50 12/20/51 8/21/52
f 13/22/53 2/23/54 5/12/55 10/24/56
g default
v -0.212504 3.343804 0.712504
v -0.250000 3.381300 0.750000
v 0.250000 3.381300 0.750000
v 0.212504 3.343804 0.712504
v -0.250000 3.456307 0.750000
v -0.212504 3.493803 0.712504
v 0.212504 3.493803 0.712504
v 0.250000 3.456307 0.750000
v -0.212504 3.493803 -0.712504
v -0.250000 3.456307 -0.750000
v 0.212504 3.493803 -0.712504
v 0.250000 3.456307 -0.750000
v -0.250000 3.381300 -0.750000
v -0.212504 3.343804 -0.712504
v 0.212504 3.343804 -0.712504
v 0.250000 3.381300 -0.750000
vt 0.423603 0.880247
vt 0.409164 0.885060
vt 0.423603 0.114940
vt 0.587256 0.114940
vt 0.601694 0.885060
vt 0.587256 0.880247
vt 0.601694 0.644402
vt 0.409164 0.548128
vt 0.423603 0.495187
vt 0.587256 0.697343
vt 0.601694 0.163068
vt 0.409164 0.259342
vt 0.423603 0.312283
vt 0.587256 0.312283
vt 0.587256 0.495187
vt 0.601694 0.548128
vt 0.409164 0.644402
vt 0.423603 0.697343
vt 0.794224 0.163068
vt 0.794224 0.259342
vt 0.601694 0.259342
vt 0.216634 0.163068
vt 0.409164 0.163068
vt 0.216634 0.259342
vn -0.707106 -0.707108 0.000000
vn -0.707106 -0.707108 0.000000
vn -0.707106 -0.707108 0.000000
vn -0.707106 -0.707108 0.000000
vn 0.000000 -0.707107 0.707106
vn 0.000000 -0.707107 0.707106
vn 0.000000 -0.707107 0.707106
vn 0.000000 -0.707107 0.707106
vn 0.707106 -0.707108 0.000000
vn 0.707106 -0.707108 0.000000
vn 0.707106 -0.707108 0.000000
vn 0.707106 -0.707108 0.000000
vn -0.707106 0.707108 0.000000
vn -0.707106 0.707108 0.000000
vn -0.707106 0.707108 0.000000
vn -0.707106 0.707108 0.000000
vn 0.000000 0.707107 0.707106
vn 0.000000 0.707107 0.707106
vn 0.000000 0.707107 0.707106
vn 0.000000 0.707107 0.707106
vn 0.707106 0.707108 0.000000
vn 0.707106 0.707108 0.000000
vn 0.707106 0.707108 0.000000
vn 0.707106 0.707108 0.000000
vn 0.000000 0.707107 -0.707106
vn 0.000000 0.707107 -0.707106
vn 0.000000 0.707107 -0.707106
vn 0.000000 0.707107 -0.707106
vn 0.000000 -0.707107 -0.707106
vn 0.000000 -0.707107 -0.707106
vn 0.000000 -0.707107 -0.707106
vn 0.000000 -0.707107 -0.707106
vn 0.000000 0.000000 1.000000
vn 0.000000 0.000000 1.000000
vn 0.000000 0.000000 1.000000
vn 0.000000 0.000000 1.000000
vn 0.000000 1.000000 0.000000
vn 0.000000 1.000000 0.000000
vn 0.000000 1.000000 0.000000
vn 0.000000 1.000000 0.000000
vn 0.000000 0.000000 -1.000000
vn 0.000000 0.000000 -1.000000
vn 0.000000 0.000000 -1.000000
vn 0.000000 0.000000 -1.000000
vn 0.000000 -1.000000 0.000000
vn 0.000000 -1.000000 0.000000
vn 0.000000 -1.000000 0.000000
vn 0.000000 -1.000000 0.000000
vn 1.000000 0.000000 0.000000
vn 1.000000 0.000000 0.000000
vn 1.000000 0.000000 0.000000
vn 1.000000 0.000000 0.000000
vn -1.000000 0.000000 0.000000
vn -1.000000 0.000000 0.000000
vn -1.000000 0.000000 0.000000
vn -1.000000 0.000000 0.000000
s off
g pCube3
usemtl initialShadingGroup
f 17/25/57 18/26/58 29/41/59 30/42/60
f 18/47/61 17/27/62 20/28/63 19/35/64
f 19/29/65 20/30/66 31/34/67 32/31/68
f 21/36/69 22/37/70 25/33/71 26/32/72
f 22/37/73 21/36/74 24/45/75 23/38/76
f 23/38/77 24/45/78 28/40/79 27/39/80
f 26/32/81 25/33/82 27/39/83 28/40/84
f 30/42/85 29/41/86 32/31/87 31/34/88
f 18/47/89 19/35/90 24/45/91 21/36/92
f 22/37/93 23/38/94 27/39/95 25/33/96
f 26/32/97 28/40/98 32/31/99 29/41/100
f 30/42/101 31/34/102 20/30/103 17/25/104
f 19/35/105 32/43/106 28/44/107 24/45/108
f 29/46/109 18/47/110 21/36/111 26/48/112
